<?xml version="1.0" encoding="UTF-8" standalone="no"?>
<!DOCTYPE svg PUBLIC "-//W3C//DTD SVG 1.1//EN" "http://www.w3.org/Graphics/SVG/1.1/DTD/svg11.dtd">
<svg version="1.1" xmlns="http://www.w3.org/2000/svg" xmlns:xlink="http://www.w3.org/1999/xlink" preserveAspectRatio="xMidYMid meet" viewBox="344.81709704114417 262.9995243642421 249.9999999999999 125" width="250" height="125"><defs><path d="M344.82 263L594.82 263L594.82 388L344.82 388L344.82 263Z" id="b2h1TvXQrE"></path><path d="M349.69 365.62L366.31 365.62L366.31 383.16L349.69 383.16L349.69 365.62Z" id="f3pjSisP4c"></path><path d="M571.01 267.26L587.63 267.26L587.63 284.8L571.01 284.8L571.01 267.26Z" id="bbQDISRF9"></path><path d="M349.69 270.35L366.31 270.35L366.31 287.9L349.69 287.9L349.69 270.35Z" id="aJ5SNVkgd"></path><path d="M462.91 267.58L564.82 267.58L564.82 285.12L462.91 285.12L462.91 267.58Z" id="b3sWLwKsEz"></path><path d="M515.48 365.86L532.11 365.86L532.11 383.4L515.48 383.4L515.48 365.86Z" id="ctGKaPdHF"></path><path d="M369.47 365.86L471.39 365.86L471.39 383.4L369.47 383.4L369.47 365.86Z" id="aQF012jHF"></path></defs><g><g><g><g><g><use xlink:href="#b2h1TvXQrE" opacity="1" fill-opacity="0" stroke="#000000" stroke-width="1" stroke-opacity="1"></use></g></g><g><g><use xlink:href="#f3pjSisP4c" opacity="1" fill-opacity="0" stroke="#000000" stroke-width="1" stroke-opacity="1"></use></g></g><g><g><use xlink:href="#bbQDISRF9" opacity="1" fill-opacity="0" stroke="#000000" stroke-width="1" stroke-opacity="1"></use></g></g><g><g><use xlink:href="#aJ5SNVkgd" opacity="1" fill-opacity="0" stroke="#000000" stroke-width="1" stroke-opacity="1"></use></g></g><g><g><use xlink:href="#b3sWLwKsEz" opacity="1" fill-opacity="0" stroke="#000000" stroke-width="1" stroke-opacity="1"></use></g></g></g><g><g><use xlink:href="#ctGKaPdHF" opacity="1" fill-opacity="0" stroke="#000000" stroke-width="1" stroke-opacity="1"></use></g></g><g><g><use xlink:href="#aQF012jHF" opacity="1" fill-opacity="0" stroke="#000000" stroke-width="1" stroke-opacity="1"></use></g></g></g></g></svg>