<?xml version="1.0" encoding="UTF-8" standalone="no"?>
<!DOCTYPE svg PUBLIC "-//W3C//DTD SVG 1.1//EN" "http://www.w3.org/Graphics/SVG/1.1/DTD/svg11.dtd">
<svg version="1.1" xmlns="http://www.w3.org/2000/svg" xmlns:xlink="http://www.w3.org/1999/xlink" preserveAspectRatio="xMidYMid meet" viewBox="99.99611948726744 215.4187757186307 373.74145038167933 13.740458015267166" width="373.74" height="13.74"><defs><path d="M113.74 222.29C113.74 226.08 110.66 229.16 106.87 229.16C103.07 229.16 100 226.08 100 222.29C100 218.5 103.07 215.42 106.87 215.42C110.66 215.42 113.74 218.5 113.74 222.29Z" id="g2yd3HE4Fi"></path><path d="M153.74 222.29C153.74 226.08 150.66 229.16 146.87 229.16C143.08 229.16 140 226.08 140 222.29C140 218.5 143.08 215.42 146.87 215.42C150.66 215.42 153.74 218.5 153.74 222.29Z" id="aklOxugsz"></path><path d="M193.74 222.29C193.74 226.08 190.66 229.16 186.87 229.16C183.08 229.16 180 226.08 180 222.29C180 218.5 183.08 215.42 186.87 215.42C190.66 215.42 193.74 218.5 193.74 222.29Z" id="a4PDvOgCc"></path><path d="M233.74 222.29C233.74 226.08 230.66 229.16 226.87 229.16C223.08 229.16 220 226.08 220 222.29C220 218.5 223.08 215.42 226.87 215.42C230.66 215.42 233.74 218.5 233.74 222.29Z" id="b2EKDeIiPn"></path><path d="M273.74 222.29C273.74 226.08 270.67 229.16 266.87 229.16C263.08 229.16 260 226.08 260 222.29C260 218.5 263.08 215.42 266.87 215.42C270.67 215.42 273.74 218.5 273.74 222.29Z" id="a1eQeLzaEQ"></path><path d="M313.75 222.29C313.75 226.08 310.67 229.16 306.88 229.16C303.08 229.16 300.01 226.08 300.01 222.29C300.01 218.5 303.08 215.42 306.88 215.42C310.67 215.42 313.75 218.5 313.75 222.29Z" id="bGVkyso84"></path><path d="M353.75 222.29C353.75 226.08 350.67 229.16 346.88 229.16C343.09 229.16 340.01 226.08 340.01 222.29C340.01 218.5 343.09 215.42 346.88 215.42C350.67 215.42 353.75 218.5 353.75 222.29Z" id="bcRSZzvGi"></path><path d="M393.75 222.29C393.75 226.08 390.67 229.16 386.88 229.16C383.09 229.16 380.01 226.08 380.01 222.29C380.01 218.5 383.09 215.42 386.88 215.42C390.67 215.42 393.75 218.5 393.75 222.29Z" id="diZTQZeSH"></path><path d="M433.74 222.29C433.74 226.08 430.66 229.16 426.87 229.16C423.07 229.16 420 226.08 420 222.29C420 218.5 423.07 215.42 426.87 215.42C430.66 215.42 433.74 218.5 433.74 222.29Z" id="aiSfNUMAc"></path><path d="M473.74 222.29C473.74 226.08 470.66 229.16 466.87 229.16C463.08 229.16 460 226.08 460 222.29C460 218.5 463.08 215.42 466.87 215.42C470.66 215.42 473.74 218.5 473.74 222.29Z" id="ca5I0YpF4"></path></defs><g><g><use xlink:href="#g2yd3HE4Fi" opacity="1" fill="#bce9fb" fill-opacity="1"></use></g><g><use xlink:href="#aklOxugsz" opacity="1" fill="#bce9fb" fill-opacity="1"></use></g><g><use xlink:href="#a4PDvOgCc" opacity="1" fill="#bce9fb" fill-opacity="1"></use></g><g><use xlink:href="#b2EKDeIiPn" opacity="1" fill="#bce9fb" fill-opacity="1"></use></g><g><use xlink:href="#a1eQeLzaEQ" opacity="1" fill="#bce9fb" fill-opacity="1"></use></g><g><use xlink:href="#bGVkyso84" opacity="1" fill="#bce9fb" fill-opacity="1"></use></g><g><use xlink:href="#bcRSZzvGi" opacity="1" fill="#bce9fb" fill-opacity="1"></use></g><g><use xlink:href="#diZTQZeSH" opacity="1" fill="#bce9fb" fill-opacity="1"></use></g><g><use xlink:href="#aiSfNUMAc" opacity="1" fill="#bce9fb" fill-opacity="1"></use></g><g><use xlink:href="#ca5I0YpF4" opacity="1" fill="#bce9fb" fill-opacity="1"></use></g></g></svg>