<?xml version="1.0" encoding="UTF-8" standalone="no"?>
<!DOCTYPE svg PUBLIC "-//W3C//DTD SVG 1.1//EN" "http://www.w3.org/Graphics/SVG/1.1/DTD/svg11.dtd">
<svg version="1.1" xmlns="http://www.w3.org/2000/svg" xmlns:xlink="http://www.w3.org/1999/xlink" preserveAspectRatio="xMidYMid meet" viewBox="99.99611948726744 215.4187757186307 173.74870229007632 13.740458015267166" width="173.75" height="13.74"><defs><path d="M113.74 222.29C113.74 226.08 110.66 229.16 106.87 229.16C103.07 229.16 100 226.08 100 222.29C100 218.5 103.07 215.42 106.87 215.42C110.66 215.42 113.74 218.5 113.74 222.29Z" id="a1vVqxy3Dt"></path><path d="M153.74 222.29C153.74 226.08 150.66 229.16 146.87 229.16C143.08 229.16 140 226.08 140 222.29C140 218.5 143.08 215.42 146.87 215.42C150.66 215.42 153.74 218.5 153.74 222.29Z" id="l3GGUAqi6N"></path><path d="M193.74 222.29C193.74 226.08 190.66 229.16 186.87 229.16C183.08 229.16 180 226.08 180 222.29C180 218.5 183.08 215.42 186.87 215.42C190.66 215.42 193.74 218.5 193.74 222.29Z" id="a3CL819im"></path><path d="M233.74 222.29C233.74 226.08 230.66 229.16 226.87 229.16C223.08 229.16 220 226.08 220 222.29C220 218.5 223.08 215.42 226.87 215.42C230.66 215.42 233.74 218.5 233.74 222.29Z" id="gpZeXeq7A"></path><path d="M273.74 222.29C273.74 226.08 270.67 229.16 266.87 229.16C263.08 229.16 260 226.08 260 222.29C260 218.5 263.08 215.42 266.87 215.42C270.67 215.42 273.74 218.5 273.74 222.29Z" id="b31EbBnNra"></path></defs><g><g><g><use xlink:href="#a1vVqxy3Dt" opacity="1" fill="#bce9fb" fill-opacity="1"></use></g><g><use xlink:href="#l3GGUAqi6N" opacity="1" fill="#bce9fb" fill-opacity="1"></use></g><g><use xlink:href="#a3CL819im" opacity="1" fill="#bce9fb" fill-opacity="1"></use></g><g><use xlink:href="#gpZeXeq7A" opacity="1" fill="#bce9fb" fill-opacity="1"></use></g><g><use xlink:href="#b31EbBnNra" opacity="1" fill="#bce9fb" fill-opacity="1"></use></g></g></g></svg>