<?xml version="1.0" encoding="UTF-8" standalone="no"?>
<!DOCTYPE svg PUBLIC "-//W3C//DTD SVG 1.1//EN" "http://www.w3.org/Graphics/SVG/1.1/DTD/svg11.dtd">
<svg version="1.1" xmlns="http://www.w3.org/2000/svg" xmlns:xlink="http://www.w3.org/1999/xlink" preserveAspectRatio="xMidYMid meet" viewBox="8.098039215686281 275.4967320261438 626.2222222222223 89.01960784313735" width="622.22" height="85.02"><defs><path d="M72.26 358.17C76.34 362.35 83.14 362.25 87.32 358.17C91.5 354.09 91.4 347.29 87.32 343.11C83.24 339.03 76.44 339.03 72.26 343.11C68.18 347.19 68.18 353.99 72.26 358.17Z" id="a5xM4ijKI"></path><path d="M49.67 301.07C52.39 301.07 55.11 300.03 57.1 297.93C61.18 293.86 61.18 287.06 57.1 282.88C53.02 278.69 46.22 278.8 42.04 282.88C39.95 284.97 38.9 287.79 38.9 290.51C38.69 295.63 36.71 300.65 32.84 304.42C29.07 308.18 24.16 309.75 19.14 309.75C19.14 309.75 19.14 309.75 19.14 309.75C19.07 309.75 19.04 309.75 19.03 309.75C18.82 309.75 18.51 309.75 18.3 309.75C18.2 309.75 18.2 309.75 18.09 309.75C17.88 309.75 17.57 309.86 17.36 309.86C17.25 309.86 17.25 309.86 17.15 309.86C16.94 309.96 16.63 309.96 16.42 310.07C16.31 310.07 16.21 310.17 16.21 310.17C16 310.27 15.79 310.27 15.58 310.38C15.48 310.38 15.37 310.48 15.27 310.48C15.06 310.59 14.85 310.69 14.64 310.8C14.54 310.9 14.43 310.9 14.33 311.01C14.12 311.11 14.01 311.22 13.8 311.32C13.7 311.42 13.49 311.53 13.39 311.63C13.28 311.74 13.07 311.84 12.97 311.95C12.76 312.16 12.44 312.37 12.24 312.58C10.14 314.67 9.1 317.39 9.1 320.1C9.1 322.93 10.14 325.54 12.24 327.63C12.44 327.84 12.76 328.05 12.97 328.37C13.07 328.47 13.18 328.47 13.18 328.58C13.39 328.68 13.49 328.89 13.7 328.99C13.8 329.1 14.01 329.2 14.12 329.2C14.22 329.31 14.43 329.41 14.54 329.41C14.75 329.52 14.95 329.62 15.06 329.73C15.16 329.73 15.27 329.83 15.37 329.83C15.58 329.93 15.79 330.04 16.1 330.04C16.21 330.04 16.21 330.04 16.31 330.14C16.63 330.25 16.84 330.25 17.25 330.35C17.27 330.35 17.35 330.35 17.36 330.35C17.67 330.46 17.88 330.46 18.3 330.46C18.3 330.46 18.3 330.46 18.41 330.46C18.72 330.46 18.93 330.46 19.35 330.56C19.35 330.56 19.35 330.56 19.45 330.56C19.45 330.56 19.45 330.56 19.45 330.56C24.47 330.56 29.39 332.13 33.15 335.9C36.92 339.66 38.9 344.68 39.22 349.8C39.22 352.63 40.26 355.35 42.35 357.44C46.43 361.52 53.23 361.52 57.41 357.44C61.59 353.36 61.49 346.56 57.41 342.38C55.32 340.29 52.6 339.24 49.99 339.24C44.76 339.14 39.74 337.15 35.87 333.18C32.1 329.41 30.54 324.6 30.43 319.69C30.43 314.77 32.1 309.86 35.87 306.2C39.42 303.16 44.44 301.18 49.67 301.07C49.67 301.07 49.67 301.07 49.67 301.07Z" id="cUaoNffaf"></path><path d="M87.32 282.88C83.24 278.69 76.44 278.8 72.26 282.88C68.08 286.95 68.18 293.75 72.26 297.93C76.34 302.12 83.24 302.01 87.32 297.93C91.4 293.86 91.4 287.06 87.32 282.88Z" id="eLlzG8qdH"></path><path d="M144.21 281.83L144.21 344.05L176.1 344.05L176.1 359.95L126.95 359.95L126.95 281.83L144.21 281.83Z" id="arWphBoUX"></path><path d="M219.19 360.05L219.19 352.84C219.06 352.84 218.99 352.84 218.98 352.84C218.46 353.88 217.62 354.82 216.78 355.97C215.84 357.02 214.8 357.96 213.44 358.8C212.08 359.53 210.61 360.26 208.84 360.78C207.16 361.31 205.28 361.52 203.29 361.52C199.11 361.52 195.76 360.89 193.05 359.63C190.33 358.27 188.34 356.5 186.88 354.3C185.41 352.1 184.47 349.28 183.95 346.25C183.53 343.11 183.32 339.76 183.32 336.21C183.32 334.22 183.32 324.29 183.32 306.41L199.95 306.41C199.95 322.15 199.95 330.9 199.95 332.65C199.95 334.22 200.05 335.79 200.16 337.46C200.26 339.14 200.58 340.71 201.2 342.07C201.73 343.53 202.67 344.58 203.71 345.52C204.86 346.46 206.54 346.88 208.63 346.88C210.72 346.88 212.5 346.56 213.86 345.73C215.22 344.99 216.16 343.95 216.89 342.59C217.52 341.23 218.04 339.76 218.25 338.2C218.46 336.52 218.56 334.85 218.56 333.07C218.56 331.29 218.56 322.41 218.56 306.41L235.19 306.41L235.08 360.05L235.08 360.05L219.19 360.05Z" id="c3g4pS8jLq"></path><path d="M275.35 320.84C273.88 320.1 272.31 319.69 270.54 319.69C266.35 319.69 263.11 320.94 260.71 323.45C258.41 325.86 257.25 329.2 257.25 333.28C257.25 337.25 258.41 340.6 260.71 343.11C263.01 345.62 266.25 346.88 270.54 346.88C272.42 346.88 273.99 346.46 275.35 345.62C276.71 344.89 277.75 343.84 278.8 342.69C279.88 343.84 288.59 353.05 289.67 354.2C287.16 356.92 284.13 358.69 280.58 359.74C277.12 360.89 273.78 361.31 270.54 361.31C266.46 361.31 262.48 360.68 258.82 359.32C255.16 357.96 252.03 356.08 249.31 353.67C246.59 351.27 244.5 348.24 242.93 344.78C241.36 341.33 240.63 337.46 240.63 333.18C240.63 328.89 241.36 325.02 242.93 321.57C244.5 318.12 246.59 315.08 249.31 312.68C252.03 310.27 255.16 308.29 258.82 307.03C262.48 305.67 266.35 305.05 270.54 305.05C273.67 305.05 277.02 305.57 280.58 306.61C284.03 307.76 287.16 309.54 289.67 312.16C288.95 312.93 285.32 316.8 278.8 323.76C277.47 322.37 276.32 321.39 275.35 320.84Z" id="b7DMErhZw"></path><path d="M307.62 288.08L308.25 288.18L308.85 288.31L309.44 288.49L310.01 288.71L310.57 288.96L311.1 289.25L311.62 289.59L312.13 289.96L312.62 290.37L313.1 290.82L313.55 291.3L313.96 291.79L314.33 292.3L314.67 292.82L314.96 293.35L315.22 293.91L315.43 294.48L315.61 295.07L315.75 295.68L315.84 296.3L315.9 296.95L315.92 297.62L315.9 298.29L315.84 298.94L315.75 299.57L315.61 300.17L315.43 300.76L315.22 301.33L314.96 301.89L314.67 302.42L314.33 302.94L313.96 303.45L313.55 303.94L313.1 304.42L312.62 304.87L312.13 305.28L311.62 305.65L311.1 305.99L310.57 306.28L310.01 306.54L309.44 306.75L308.85 306.93L308.25 307.07L307.62 307.16L306.97 307.22L306.3 307.24L305.63 307.22L304.98 307.16L304.36 307.07L303.75 306.93L303.16 306.75L302.59 306.54L302.03 306.28L301.5 305.99L300.98 305.65L300.47 305.28L299.98 304.87L299.5 304.42L299.07 303.96L298.68 303.48L298.31 302.97L297.98 302.45L297.69 301.9L297.42 301.33L297.2 300.75L297.02 300.15L296.87 299.54L296.77 298.91L296.7 298.27L296.68 297.62L296.7 296.95L296.76 296.3L296.86 295.68L296.99 295.07L297.17 294.48L297.39 293.91L297.64 293.35L297.93 292.82L298.27 292.3L298.64 291.79L299.05 291.3L299.5 290.82L299.98 290.37L300.47 289.96L300.98 289.59L301.5 289.25L302.03 288.96L302.59 288.71L303.16 288.49L303.75 288.31L304.36 288.18L304.98 288.08L305.63 288.02L306.3 288L306.97 288.02L307.62 288.08Z" id="aEsg306cI"></path><path d="M363.19 360.05L363.19 353.05L362.98 353.05L362.93 353.12L362.88 353.2L362.83 353.28L362.78 353.35L362.73 353.43L362.68 353.5L362.62 353.58L362.57 353.65L362.51 353.72L362.46 353.8L362.4 353.87L362.34 353.94L362.28 354.01L362.22 354.08L362.16 354.16L362.1 354.23L362.03 354.3L361.97 354.37L361.91 354.44L361.84 354.51L361.78 354.58L361.71 354.65L361.65 354.72L361.58 354.79L361.51 354.86L361.45 354.93L361.38 355.01L361.31 355.08L361.24 355.15L361.17 355.22L361.1 355.29L361.03 355.37L360.96 355.44L360.89 355.52L360.82 355.59L360.75 355.67L360.68 355.74L360.61 355.82L360.54 355.9L360.47 355.97L360.38 356.05L360.3 356.13L360.21 356.21L360.13 356.28L360.04 356.36L359.95 356.43L359.86 356.5L359.78 356.58L359.69 356.65L359.6 356.72L359.52 356.79L359.43 356.86L359.34 356.93L359.25 357L359.16 357.07L359.07 357.14L358.98 357.21L358.89 357.28L358.8 357.34L358.71 357.41L358.61 357.48L358.52 357.54L358.43 357.61L358.33 357.68L358.24 357.74L358.14 357.81L358.04 357.87L357.95 357.93L357.85 358L357.75 358.06L357.65 358.13L357.55 358.19L357.45 358.25L357.34 358.32L357.24 358.38L357.14 358.44L357.03 358.5L356.92 358.57L356.82 358.63L356.71 358.69L356.6 358.75L356.49 358.8L356.37 358.86L356.26 358.91L356.15 358.97L356.04 359.02L355.93 359.08L355.81 359.13L355.7 359.18L355.59 359.24L355.47 359.29L355.36 359.35L355.24 359.4L355.13 359.45L355.01 359.51L354.89 359.56L354.77 359.61L354.66 359.66L354.54 359.71L354.42 359.76L354.3 359.82L354.18 359.87L354.06 359.92L353.94 359.97L353.81 360.01L353.69 360.06L353.57 360.11L353.44 360.16L353.32 360.21L353.19 360.25L353.06 360.3L352.94 360.34L352.81 360.39L352.68 360.43L352.55 360.47L352.42 360.52L352.29 360.56L352.16 360.6L352.03 360.64L351.9 360.68L351.76 360.72L351.63 360.76L351.5 360.79L351.36 360.83L351.23 360.86L351.1 360.89L350.96 360.93L350.83 360.96L350.7 360.99L350.56 361.01L350.43 361.04L350.3 361.07L350.16 361.09L350.03 361.12L349.9 361.14L349.76 361.16L349.63 361.18L349.5 361.2L349.36 361.22L349.23 361.24L349.1 361.26L348.96 361.28L348.83 361.29L348.7 361.3L348.56 361.32L348.43 361.33L348.3 361.34L348.16 361.35L348.03 361.36L347.9 361.37L347.76 361.38L347.63 361.39L347.5 361.39L347.36 361.4L347.23 361.4L347.1 361.41L346.96 361.41L346.83 361.41L346.7 361.41L346.56 361.41L346.26 361.41L345.97 361.41L345.67 361.4L345.38 361.39L345.09 361.38L344.8 361.37L344.51 361.35L344.23 361.34L343.94 361.32L343.66 361.29L343.38 361.27L343.1 361.24L342.82 361.21L342.54 361.18L342.26 361.14L341.99 361.1L341.71 361.06L341.44 361.02L341.17 360.98L340.9 360.93L340.63 360.88L340.37 360.82L340.1 360.77L339.84 360.71L339.58 360.65L339.31 360.59L339.05 360.52L338.8 360.45L338.54 360.38L338.28 360.31L338.03 360.23L337.77 360.15L337.52 360.07L337.27 359.99L337.02 359.9L336.77 359.81L336.53 359.72L336.28 359.62L336.03 359.53L335.79 359.42L335.55 359.32L335.31 359.22L335.07 359.11L334.83 359L334.59 358.89L334.36 358.78L334.13 358.66L333.9 358.55L333.67 358.43L333.44 358.31L333.21 358.18L332.99 358.06L332.77 357.93L332.55 357.8L332.33 357.67L332.11 357.54L331.89 357.4L331.68 357.26L331.47 357.12L331.25 356.98L331.05 356.84L330.84 356.69L330.63 356.54L330.43 356.39L330.23 356.24L330.03 356.08L329.83 355.93L329.63 355.77L329.44 355.6L329.25 355.44L329.06 355.27L328.87 355.1L328.68 354.93L328.5 354.76L328.31 354.59L328.13 354.41L327.95 354.23L327.77 354.04L327.6 353.86L327.42 353.67L327.25 353.49L327.08 353.31L326.92 353.12L326.75 352.94L326.59 352.75L326.42 352.56L326.27 352.36L326.11 352.17L325.95 351.97L325.8 351.77L325.65 351.57L325.5 351.37L325.35 351.16L325.2 350.96L325.06 350.75L324.92 350.54L324.77 350.32L324.64 350.11L324.5 349.89L324.37 349.67L324.23 349.45L324.1 349.23L323.97 349.01L323.85 348.78L323.72 348.55L323.6 348.32L323.48 348.09L323.36 347.85L323.25 347.62L323.13 347.38L323.02 347.14L322.91 346.9L322.8 346.65L322.69 346.41L322.59 346.16L322.48 345.91L322.38 345.66L322.28 345.4L322.19 345.15L322.09 344.89L322 344.64L321.91 344.38L321.82 344.13L321.73 343.87L321.65 343.61L321.57 343.36L321.49 343.09L321.41 342.83L321.34 342.57L321.27 342.3L321.2 342.04L321.13 341.77L321.07 341.5L321 341.23L320.94 340.95L320.89 340.68L320.83 340.4L320.78 340.13L320.73 339.85L320.68 339.57L320.63 339.29L320.59 339.01L320.55 338.72L320.51 338.44L320.47 338.15L320.44 337.86L320.41 337.57L320.38 337.28L320.35 336.99L320.33 336.7L320.3 336.4L320.28 336.11L320.27 335.81L320.25 335.51L320.24 335.21L320.23 334.91L320.22 334.61L320.21 334.31L320.21 334L320.21 333.7L320.21 333.42L320.21 333.14L320.22 332.86L320.22 332.58L320.23 332.3L320.24 332.02L320.26 331.74L320.27 331.46L320.29 331.19L320.31 330.91L320.33 330.64L320.35 330.36L320.38 330.09L320.41 329.82L320.44 329.55L320.47 329.28L320.5 329L320.54 328.73L320.57 328.47L320.61 328.2L320.66 327.93L320.7 327.66L320.75 327.39L320.8 327.13L320.85 326.86L320.9 326.59L320.96 326.33L321.01 326.07L321.07 325.8L321.14 325.54L321.2 325.27L321.27 325.01L321.34 324.75L321.41 324.49L321.48 324.23L321.56 323.97L321.63 323.71L321.71 323.45L321.8 323.19L321.88 322.93L321.97 322.67L322.06 322.41L322.15 322.16L322.24 321.91L322.34 321.65L322.43 321.4L322.53 321.15L322.63 320.91L322.74 320.66L322.84 320.42L322.95 320.18L323.06 319.94L323.17 319.7L323.28 319.46L323.39 319.22L323.51 318.99L323.62 318.75L323.74 318.52L323.86 318.29L323.99 318.07L324.11 317.84L324.24 317.61L324.37 317.39L324.5 317.17L324.63 316.95L324.76 316.73L324.89 316.51L325.03 316.3L325.17 316.08L325.31 315.87L325.45 315.66L325.59 315.45L325.74 315.24L325.88 315.03L326.03 314.83L326.18 314.63L326.33 314.43L326.49 314.23L326.64 314.03L326.8 313.83L326.96 313.63L327.12 313.43L327.28 313.23L327.44 313.03L327.61 312.84L327.77 312.65L327.94 312.46L328.11 312.27L328.29 312.09L328.46 311.91L328.64 311.73L328.82 311.55L329 311.37L329.18 311.2L329.36 311.03L329.54 310.86L329.73 310.7L329.92 310.53L330.11 310.37L330.3 310.21L330.49 310.05L330.69 309.9L330.88 309.74L331.08 309.59L331.28 309.44L331.48 309.29L331.68 309.15L331.89 309.01L332.09 308.87L332.3 308.73L332.5 308.59L332.71 308.46L332.92 308.32L333.14 308.19L333.35 308.06L333.56 307.94L333.78 307.81L333.99 307.69L334.21 307.57L334.43 307.45L334.66 307.33L334.89 307.22L335.12 307.11L335.35 307.01L335.59 306.9L335.82 306.8L336.06 306.7L336.3 306.61L336.54 306.52L336.78 306.43L337.03 306.34L337.27 306.26L337.52 306.18L337.76 306.11L338.01 306.03L338.26 305.96L338.52 305.9L338.77 305.83L339.02 305.77L339.28 305.71L339.54 305.66L339.8 305.6L340.06 305.56L340.32 305.51L340.58 305.46L340.85 305.42L341.11 305.39L341.38 305.35L341.65 305.32L341.92 305.29L342.19 305.26L342.46 305.24L342.73 305.22L343.01 305.2L343.28 305.18L343.56 305.17L343.84 305.16L344.12 305.16L344.4 305.15L344.68 305.15L344.94 305.15L345.2 305.15L345.45 305.16L345.71 305.17L345.96 305.17L346.22 305.19L346.47 305.2L346.73 305.21L346.98 305.23L347.23 305.25L347.48 305.27L347.73 305.29L347.98 305.32L348.23 305.34L348.47 305.37L348.72 305.4L348.97 305.43L349.21 305.47L349.46 305.5L349.7 305.54L349.94 305.58L350.18 305.62L350.43 305.67L350.67 305.72L350.91 305.76L351.14 305.81L351.38 305.87L351.62 305.92L351.86 305.97L352.09 306.03L352.33 306.09L352.56 306.15L352.79 306.22L353.03 306.28L353.26 306.35L353.49 306.42L353.72 306.49L353.95 306.57L354.18 306.64L354.41 306.72L354.63 306.81L354.86 306.9L355.08 306.99L355.3 307.08L355.51 307.18L355.73 307.28L355.94 307.38L356.15 307.49L356.36 307.59L356.56 307.7L356.77 307.81L356.97 307.93L357.17 308.04L357.36 308.16L357.56 308.28L357.75 308.41L357.94 308.53L358.13 308.66L358.31 308.79L358.5 308.93L358.68 309.06L358.86 309.2L359.03 309.35L359.21 309.49L359.38 309.64L359.55 309.79L359.72 309.94L359.89 310.09L360.05 310.25L360.21 310.41L360.37 310.57L360.53 310.74L360.69 310.91L360.84 311.08L360.99 311.25L361.14 311.43L361.29 311.6L361.44 311.79L361.58 311.97L361.73 312.16L361.93 312.16L361.93 276.6L378.56 276.6L378.46 360.05L363.19 360.05ZM348.47 319.63L347.78 319.7L347.11 319.79L346.46 319.91L345.83 320.05L345.21 320.22L344.62 320.42L344.04 320.64L343.48 320.88L342.94 321.16L342.42 321.46L341.92 321.78L341.43 322.13L340.96 322.51L340.51 322.92L340.08 323.35L339.68 323.78L339.31 324.23L338.97 324.71L338.65 325.2L338.35 325.71L338.07 326.24L337.82 326.78L337.59 327.35L337.39 327.93L337.21 328.53L337.06 329.14L336.93 329.77L336.82 330.42L336.73 331.09L336.68 331.77L336.64 332.46L336.63 333.18L336.64 333.89L336.68 334.58L336.73 335.26L336.82 335.92L336.93 336.56L337.06 337.19L337.21 337.8L337.39 338.39L337.59 338.97L337.82 339.53L338.07 340.07L338.35 340.6L338.65 341.11L338.97 341.61L339.31 342.09L339.68 342.56L340.08 343.01L340.49 343.44L340.93 343.84L341.38 344.22L341.86 344.57L342.36 344.9L342.87 345.2L343.41 345.47L343.96 345.72L344.54 345.94L345.14 346.13L345.75 346.3L346.39 346.45L347.05 346.56L347.74 346.65L348.44 346.72L349.16 346.76L349.91 346.77L350.64 346.76L351.35 346.72L352.04 346.65L352.71 346.56L353.36 346.45L353.99 346.3L354.6 346.13L355.2 345.94L355.78 345.72L356.33 345.47L356.87 345.2L357.4 344.9L357.9 344.57L358.39 344.22L358.85 343.84L359.31 343.44L359.74 343.01L360.13 342.57L360.5 342.12L360.85 341.65L361.17 341.16L361.47 340.65L361.74 340.12L362 339.57L362.22 339.01L362.43 338.43L362.6 337.83L362.76 337.21L362.89 336.58L363 335.93L363.08 335.27L363.14 334.59L363.18 333.89L363.19 333.18L363.18 332.48L363.14 331.8L363.08 331.13L363 330.48L362.89 329.84L362.76 329.21L362.6 328.6L362.43 328L362.22 327.42L362 326.86L361.74 326.31L361.47 325.77L361.17 325.25L360.85 324.75L360.5 324.27L360.13 323.8L359.74 323.35L359.32 322.93L358.89 322.54L358.43 322.17L357.96 321.83L357.46 321.5L356.95 321.2L356.41 320.93L355.85 320.68L355.28 320.45L354.68 320.25L354.06 320.08L353.42 319.93L352.76 319.8L352.08 319.71L351.38 319.64L350.65 319.6L349.91 319.58L349.18 319.59L348.47 319.63Z" id="e9uiLeN4k"></path><path d="M424.89 316.44C422.8 315.4 420.39 314.98 417.88 314.98C414.95 314.98 412.44 315.4 410.35 316.44C408.16 317.49 406.38 318.75 404.92 320.52C403.45 322.3 402.41 324.29 401.67 326.69C400.94 328.99 400.52 331.5 400.52 334.12C400.52 336.73 400.94 339.24 401.78 341.54C402.72 343.84 403.76 345.93 405.33 347.71C406.8 349.49 408.68 350.85 410.77 351.79C412.86 352.73 415.37 353.25 417.88 353.25C423.53 353.25 427.92 351.16 431.06 346.88C431.7 347.49 436.8 352.43 437.44 353.05C435.03 355.97 432 358.07 428.65 359.32C425.31 360.68 421.75 361.31 417.99 361.31C414.01 361.31 410.46 360.68 407.11 359.32C403.76 357.96 400.94 356.08 398.64 353.67C396.34 351.27 394.56 348.34 393.2 345.1C391.84 341.75 391.32 338.2 391.32 334.22C391.32 330.35 391.95 326.8 393.2 323.45C394.56 320.1 396.34 317.18 398.64 314.88C400.94 312.47 403.76 310.48 407.11 309.23C410.35 307.87 414.01 307.24 417.99 307.24C421.75 307.24 425.41 307.87 428.86 309.23C432.31 310.59 435.35 312.58 437.86 315.5C437.38 315.89 435.01 317.8 430.75 321.25C428.24 318.75 426.28 317.14 424.89 316.44Z" id="buzCGFCya"></path><path d="M447.16 276.5L455.74 276.5L455.74 315.5C455.86 315.5 455.93 315.5 455.95 315.5C456.47 314.46 457.41 313.52 458.35 312.47C459.29 311.42 460.55 310.59 462.01 309.75C463.48 309.02 465.05 308.29 466.82 307.76C468.6 307.24 470.48 307.03 472.47 307.03C475.82 307.03 478.85 307.56 481.25 308.6C483.66 309.65 485.75 311.01 487.42 312.99C489.1 314.88 490.25 317.07 490.98 319.69C491.71 322.3 492.13 325.12 492.13 328.26C492.13 330.39 492.13 341.02 492.13 360.16L483.56 360.16C483.56 341.52 483.56 331.17 483.56 329.1C483.56 324.71 482.51 321.25 480.63 318.85C478.75 316.44 475.71 315.08 471.74 315.08C468.92 315.08 466.51 315.5 464.52 316.55C462.54 317.59 460.86 318.85 459.5 320.63C458.14 322.41 457.31 324.5 456.58 326.9C455.95 329.31 455.63 332.03 455.63 334.95C455.63 336.63 455.63 345.04 455.63 360.16L447.06 360.16L447.06 276.5L447.16 276.5Z" id="cjXbdLC4"></path><path d="M527.56 307.05L528.11 307.06L528.66 307.09L529.2 307.12L529.73 307.15L530.25 307.2L530.76 307.25L531.27 307.3L531.76 307.37L532.25 307.44L532.74 307.52L533.21 307.6L533.68 307.69L534.14 307.79L534.59 307.89L535.03 308L535.47 308.12L535.89 308.25L536.31 308.38L536.73 308.52L537.13 308.66L537.53 308.82L537.91 308.98L538.29 309.14L538.67 309.31L539.03 309.49L539.39 309.68L539.74 309.88L540.08 310.08L540.41 310.28L540.74 310.5L541.05 310.72L541.36 310.95L541.67 311.19L541.96 311.43L542.25 311.68L542.53 311.94L542.8 312.2L543.06 312.47L543.31 312.74L543.55 313.02L543.79 313.3L544.02 313.6L544.24 313.9L544.46 314.2L544.67 314.52L544.88 314.84L545.08 315.17L545.27 315.51L545.46 315.85L545.64 316.2L545.82 316.56L545.99 316.93L546.15 317.3L546.31 317.68L546.46 318.07L546.6 318.47L546.74 318.87L546.88 319.28L547 319.7L547.12 320.12L547.24 320.55L547.34 320.99L547.44 321.44L547.54 321.89L547.63 322.35L547.71 322.82L547.78 323.3L547.85 323.78L547.92 324.27L547.97 324.77L548.02 325.27L548.06 325.78L548.1 326.3L548.13 326.82L548.15 327.35L548.17 327.89L548.18 328.44L548.18 328.99L548.18 351.16L548.18 351.27L548.18 351.38L548.18 351.49L548.19 351.61L548.19 351.72L548.19 351.83L548.19 351.94L548.19 352.05L548.2 352.17L548.2 352.28L548.2 352.39L548.21 352.51L548.21 352.62L548.22 352.73L548.22 352.85L548.23 352.96L548.23 353.08L548.24 353.19L548.24 353.31L548.25 353.42L548.25 353.54L548.26 353.66L548.27 353.77L548.27 353.89L548.28 354.01L548.29 354.12L548.29 354.24L548.3 354.36L548.31 354.47L548.32 354.59L548.32 354.71L548.33 354.82L548.34 354.94L548.35 355.06L548.35 355.18L548.36 355.29L548.37 355.41L548.38 355.53L548.38 355.65L548.39 355.76L548.4 355.88L548.41 356L548.42 356.12L548.43 356.23L548.44 356.35L548.45 356.46L548.46 356.58L548.47 356.69L548.48 356.81L548.49 356.92L548.5 357.04L548.51 357.15L548.52 357.26L548.54 357.37L548.55 357.49L548.56 357.6L548.57 357.71L548.59 357.82L548.6 357.93L548.61 358.04L548.63 358.15L548.64 358.26L548.66 358.37L548.67 358.48L548.69 358.58L548.7 358.69L548.71 358.8L548.73 358.91L548.74 359.01L548.76 359.12L548.78 359.22L548.79 359.33L548.81 359.43L548.82 359.54L548.84 359.64L548.85 359.75L548.87 359.85L548.88 359.95L548.9 360.05L548.92 360.16L540.65 360.16L540.63 360.06L540.61 359.97L540.59 359.88L540.57 359.78L540.55 359.69L540.53 359.6L540.51 359.51L540.49 359.41L540.47 359.32L540.46 359.23L540.44 359.14L540.42 359.04L540.41 358.95L540.4 358.86L540.38 358.77L540.37 358.67L540.36 358.58L540.35 358.49L540.34 358.39L540.33 358.3L540.32 358.21L540.31 358.11L540.3 358.02L540.29 357.92L540.28 357.82L540.28 357.73L540.27 357.63L540.27 357.53L540.26 357.43L540.26 357.33L540.25 357.23L540.25 357.13L540.25 357.03L540.24 356.93L540.24 356.82L540.24 356.72L540.24 356.61L540.24 356.5L540.24 356.4L540.24 356.18L540.23 356.07L540.23 355.96L540.23 355.85L540.23 355.75L540.23 355.64L540.23 355.54L540.22 355.43L540.22 355.33L540.22 355.23L540.22 355.13L540.21 355.03L540.21 354.93L540.21 354.83L540.2 354.73L540.2 354.63L540.19 354.53L540.19 354.44L540.19 354.34L540.18 354.25L540.18 354.15L540.18 354.06L540.17 353.97L540.17 353.88L540.16 353.79L540.16 353.7L540.16 353.61L540.15 353.52L540.15 353.43L540.15 353.35L540.14 353.26L540.14 353.18L540.14 353.09L540.14 353.01L540.14 352.92L540.13 352.84L540.13 352.76L540.13 352.68L540.13 352.6L540.13 352.52L539.92 352.52L539.79 352.73L539.67 352.93L539.53 353.12L539.4 353.32L539.26 353.51L539.13 353.7L538.99 353.89L538.84 354.08L538.7 354.27L538.55 354.45L538.4 354.63L538.25 354.81L538.09 354.98L537.94 355.16L537.78 355.33L537.62 355.5L537.46 355.67L537.29 355.83L537.12 356L536.95 356.16L536.78 356.32L536.61 356.47L536.43 356.63L536.25 356.78L536.07 356.94L535.89 357.09L535.71 357.24L535.52 357.38L535.33 357.53L535.14 357.67L534.95 357.81L534.75 357.95L534.56 358.09L534.36 358.22L534.16 358.36L533.96 358.49L533.75 358.62L533.54 358.75L533.33 358.88L533.12 359.01L532.91 359.13L532.7 359.25L532.48 359.37L532.26 359.48L532.04 359.59L531.81 359.7L531.58 359.81L531.36 359.91L531.12 360.01L530.89 360.1L530.65 360.2L530.42 360.29L530.18 360.37L529.93 360.46L529.69 360.54L529.44 360.61L529.19 360.69L528.94 360.76L528.69 360.82L528.43 360.89L528.17 360.95L527.91 361.01L527.65 361.06L527.39 361.11L527.12 361.16L526.85 361.21L526.58 361.25L526.31 361.29L526.03 361.33L525.76 361.36L525.48 361.39L525.2 361.42L524.91 361.44L524.63 361.46L524.34 361.48L524.05 361.49L523.76 361.5L523.47 361.51L523.17 361.51L522.88 361.52L522.67 361.52L522.47 361.51L522.27 361.51L522.07 361.51L521.87 361.5L521.67 361.49L521.48 361.49L521.28 361.48L521.09 361.47L520.89 361.46L520.7 361.44L520.51 361.43L520.32 361.41L520.13 361.4L519.94 361.38L519.75 361.36L519.56 361.34L519.38 361.32L519.19 361.29L519.01 361.27L518.82 361.24L518.64 361.21L518.46 361.19L518.28 361.15L518.09 361.12L517.91 361.09L517.73 361.06L517.56 361.02L517.38 360.98L517.2 360.94L517.02 360.9L516.85 360.86L516.67 360.82L516.49 360.77L516.32 360.73L516.14 360.68L515.97 360.63L515.8 360.58L515.62 360.52L515.45 360.47L515.28 360.42L515.11 360.37L514.94 360.32L514.77 360.27L514.6 360.22L514.43 360.16L514.26 360.1L514.1 360.05L513.93 359.99L513.77 359.92L513.6 359.86L513.44 359.8L513.28 359.73L513.12 359.67L512.96 359.6L512.8 359.53L512.64 359.46L512.48 359.39L512.33 359.32L512.17 359.24L512.02 359.17L511.86 359.09L511.71 359.01L511.56 358.93L511.41 358.85L511.26 358.77L511.11 358.69L510.96 358.61L510.82 358.53L510.67 358.44L510.53 358.36L510.38 358.27L510.24 358.18L510.1 358.09L509.96 358L509.82 357.91L509.69 357.82L509.55 357.73L509.41 357.64L509.28 357.54L509.16 357.44L509.03 357.34L508.91 357.23L508.79 357.13L508.66 357.02L508.54 356.92L508.42 356.81L508.3 356.7L508.19 356.59L508.07 356.48L507.95 356.37L507.84 356.26L507.73 356.15L507.61 356.03L507.5 355.92L507.39 355.8L507.29 355.69L507.18 355.57L507.07 355.45L506.97 355.33L506.86 355.21L506.76 355.09L506.66 354.97L506.56 354.85L506.47 354.72L506.37 354.6L506.28 354.47L506.18 354.34L506.09 354.22L506 354.09L505.91 353.96L505.83 353.82L505.74 353.69L505.66 353.56L505.58 353.42L505.5 353.29L505.42 353.15L505.35 353.01L505.27 352.87L505.2 352.73L505.13 352.59L505.05 352.45L504.98 352.3L504.9 352.16L504.83 352.01L504.77 351.86L504.7 351.71L504.64 351.56L504.58 351.41L504.52 351.26L504.46 351.11L504.4 350.95L504.35 350.8L504.3 350.64L504.25 350.48L504.2 350.32L504.15 350.16L504.11 350L504.07 349.84L504.03 349.67L503.99 349.51L503.95 349.34L503.92 349.17L503.88 349L503.85 348.83L503.83 348.66L503.8 348.49L503.78 348.32L503.75 348.14L503.73 347.97L503.71 347.79L503.7 347.61L503.68 347.43L503.67 347.25L503.66 347.07L503.65 346.89L503.64 346.7L503.64 346.52L503.63 346.33L503.63 346.14L503.64 345.83L503.64 345.52L503.65 345.22L503.67 344.91L503.69 344.61L503.71 344.32L503.74 344.02L503.77 343.73L503.81 343.45L503.85 343.16L503.89 342.88L503.94 342.6L503.99 342.33L504.05 342.06L504.11 341.79L504.18 341.53L504.25 341.26L504.32 341L504.4 340.75L504.48 340.5L504.57 340.25L504.66 340L504.76 339.76L504.85 339.52L504.96 339.28L505.06 339.05L505.17 338.82L505.29 338.59L505.41 338.36L505.53 338.14L505.66 337.93L505.79 337.71L505.92 337.5L506.06 337.29L506.21 337.08L506.35 336.88L506.5 336.68L506.66 336.49L506.82 336.29L506.98 336.1L507.15 335.93L507.31 335.75L507.48 335.57L507.66 335.4L507.83 335.23L508 335.06L508.18 334.9L508.36 334.74L508.54 334.58L508.73 334.42L508.91 334.26L509.1 334.11L509.29 333.95L509.48 333.81L509.68 333.66L509.87 333.51L510.07 333.37L510.27 333.23L510.47 333.09L510.68 332.95L510.89 332.82L511.1 332.69L511.31 332.56L511.52 332.43L511.74 332.3L511.95 332.18L512.17 332.06L512.4 331.94L512.62 331.82L512.85 331.71L513.08 331.59L513.31 331.48L513.54 331.37L513.78 331.27L514.02 331.16L514.26 331.06L514.5 330.96L514.74 330.86L514.99 330.76L515.24 330.67L515.49 330.57L515.73 330.48L515.98 330.39L516.22 330.31L516.47 330.22L516.72 330.14L516.97 330.06L517.22 329.99L517.48 329.91L517.73 329.84L517.99 329.77L518.24 329.7L518.5 329.63L518.76 329.57L519.02 329.5L519.28 329.44L519.54 329.38L519.8 329.33L520.06 329.27L520.33 329.22L520.59 329.16L520.86 329.11L521.13 329.06L521.39 329.02L521.66 328.97L521.93 328.93L522.2 328.89L522.47 328.85L522.75 328.81L523.02 328.77L523.3 328.73L523.57 328.7L523.85 328.67L524.12 328.63L524.4 328.6L524.68 328.57L524.96 328.55L525.24 328.52L525.52 328.49L525.8 328.47L526.09 328.45L526.37 328.43L526.65 328.4L526.92 328.38L527.2 328.36L527.48 328.34L527.75 328.32L528.03 328.31L528.3 328.29L528.57 328.27L528.84 328.26L529.11 328.24L529.38 328.23L529.65 328.21L529.91 328.2L530.18 328.19L530.44 328.18L530.71 328.16L530.97 328.15L531.23 328.14L531.49 328.13L531.75 328.13L532.01 328.12L532.26 328.11L532.52 328.1L532.78 328.1L533.03 328.09L533.28 328.08L533.54 328.08L533.79 328.07L534.04 328.07L534.29 328.07L534.54 328.06L534.79 328.06L535.04 328.06L535.28 328.06L535.53 328.05L535.77 328.05L536.02 328.05L536.26 328.05L539.61 328.05L539.61 326.48L539.61 326.2L539.6 325.93L539.59 325.65L539.57 325.38L539.55 325.12L539.53 324.85L539.5 324.59L539.47 324.34L539.43 324.09L539.39 323.84L539.35 323.59L539.3 323.35L539.25 323.11L539.19 322.88L539.13 322.65L539.06 322.42L538.99 322.19L538.92 321.97L538.84 321.76L538.76 321.54L538.67 321.33L538.58 321.13L538.49 320.92L538.39 320.72L538.29 320.53L538.18 320.34L538.07 320.15L537.95 319.96L537.83 319.78L537.71 319.6L537.58 319.43L537.45 319.26L537.32 319.09L537.18 318.92L537.04 318.76L536.89 318.61L536.74 318.45L536.58 318.3L536.42 318.16L536.26 318.01L536.09 317.87L535.92 317.74L535.75 317.6L535.57 317.47L535.39 317.35L535.21 317.22L535.02 317.1L534.83 316.99L534.63 316.87L534.44 316.76L534.23 316.65L534.03 316.55L533.82 316.45L533.61 316.35L533.39 316.26L533.17 316.17L532.94 316.08L532.72 316L532.48 315.92L532.25 315.84L532.01 315.77L531.77 315.7L531.52 315.64L531.27 315.57L531.02 315.52L530.76 315.46L530.5 315.41L530.23 315.36L529.96 315.32L529.69 315.28L529.41 315.24L529.13 315.21L528.85 315.18L528.56 315.15L528.26 315.13L527.97 315.12L527.67 315.1L527.36 315.09L527.06 315.09L526.75 315.08L526.53 315.09L526.32 315.09L526.11 315.09L525.9 315.1L525.69 315.1L525.48 315.11L525.27 315.12L525.06 315.14L524.85 315.15L524.65 315.17L524.44 315.18L524.23 315.2L524.02 315.22L523.81 315.24L523.61 315.27L523.4 315.29L523.19 315.32L522.99 315.35L522.78 315.38L522.58 315.41L522.37 315.45L522.16 315.48L521.96 315.52L521.75 315.56L521.55 315.6L521.34 315.64L521.14 315.69L520.93 315.74L520.73 315.78L520.52 315.83L520.32 315.89L520.12 315.94L519.91 316L519.71 316.06L519.5 316.12L519.3 316.18L519.1 316.24L518.89 316.31L518.69 316.37L518.48 316.44L518.28 316.52L518.08 316.59L517.88 316.66L517.68 316.74L517.48 316.82L517.29 316.9L517.09 316.98L516.9 317.06L516.71 317.14L516.52 317.23L516.33 317.32L516.14 317.41L515.96 317.5L515.77 317.59L515.59 317.69L515.41 317.78L515.23 317.88L515.05 317.98L514.87 318.08L514.69 318.18L514.52 318.29L514.34 318.39L514.17 318.5L514 318.61L513.82 318.72L513.65 318.84L513.49 318.95L513.32 319.07L513.15 319.19L512.98 319.31L512.82 319.44L512.65 319.56L512.49 319.69L512.33 319.82L512.17 319.95L512.01 320.08L511.85 320.21L511.69 320.35L511.53 320.49L511.37 320.63L505.73 314.98L506.01 314.75L506.3 314.52L506.58 314.29L506.86 314.07L507.13 313.86L507.41 313.64L507.68 313.44L507.95 313.23L508.21 313.03L508.48 312.84L508.74 312.65L509 312.46L509.25 312.28L509.51 312.1L509.76 311.92L510.01 311.75L510.26 311.58L510.5 311.42L510.74 311.26L510.98 311.11L511.22 310.96L511.45 310.82L511.68 310.68L511.91 310.54L512.14 310.41L512.36 310.28L512.58 310.15L512.8 310.03L513.02 309.92L513.24 309.8L513.45 309.7L513.66 309.59L513.86 309.49L514.07 309.4L514.27 309.31L514.47 309.22L514.67 309.14L514.86 309.06L515.05 308.99L515.24 308.92L515.52 308.81L515.81 308.72L516.09 308.62L516.37 308.53L516.64 308.44L516.92 308.36L517.2 308.28L517.48 308.2L517.76 308.12L518.03 308.05L518.31 307.98L518.59 307.91L518.86 307.84L519.14 307.78L519.42 307.72L519.69 307.67L519.97 307.61L520.24 307.56L520.52 307.51L520.8 307.46L521.07 307.42L521.35 307.38L521.63 307.34L521.91 307.3L522.18 307.27L522.46 307.24L522.74 307.21L523.02 307.18L523.3 307.16L523.58 307.14L523.86 307.12L524.14 307.1L524.43 307.08L524.71 307.07L524.99 307.06L525.28 307.05L525.57 307.04L525.85 307.04L526.14 307.03L526.43 307.03L527 307.04L527.56 307.05ZM530.61 335.27L529.52 335.28L528.46 335.31L527.43 335.36L526.43 335.43L525.46 335.52L524.52 335.63L523.61 335.76L522.73 335.91L521.88 336.08L521.06 336.27L520.28 336.49L519.52 336.73L518.8 336.99L518.1 337.27L517.44 337.57L516.81 337.89L516.23 338.25L515.68 338.62L515.18 339.02L514.72 339.45L514.31 339.9L513.93 340.38L513.61 340.88L513.32 341.41L513.08 341.96L512.88 342.54L512.72 343.14L512.61 343.77L512.55 344.42L512.52 345.1L512.54 345.73L512.58 346.34L512.66 346.93L512.76 347.49L512.9 348.03L513.06 348.54L513.25 349.02L513.47 349.48L513.72 349.92L513.99 350.33L514.3 350.71L514.62 351.07L514.98 351.41L515.36 351.72L515.76 352L516.19 352.26L516.64 352.5L517.1 352.73L517.59 352.93L518.09 353.12L518.61 353.29L519.14 353.44L519.69 353.57L520.25 353.68L520.83 353.77L521.42 353.85L522.03 353.91L522.65 353.95L523.28 353.98L523.92 353.99L524.4 353.98L524.88 353.96L525.35 353.94L525.82 353.9L526.28 353.85L526.74 353.79L527.19 353.71L527.63 353.63L528.07 353.54L528.5 353.43L528.92 353.31L529.33 353.18L529.74 353.04L530.13 352.89L530.51 352.73L530.88 352.54L531.25 352.35L531.6 352.15L531.95 351.95L532.29 351.75L532.62 351.54L532.94 351.32L533.25 351.11L533.56 350.88L533.86 350.65L534.14 350.41L534.43 350.17L534.7 349.91L534.96 349.65L535.22 349.39L535.46 349.09L535.7 348.79L535.93 348.49L536.15 348.19L536.37 347.88L536.58 347.57L536.78 347.25L536.97 346.92L537.16 346.59L537.34 346.26L537.51 345.91L537.68 345.56L537.84 345.21L537.99 344.84L538.14 344.47L538.27 344.09L538.38 343.71L538.49 343.33L538.6 342.94L538.7 342.55L538.79 342.15L538.87 341.76L538.95 341.35L539.02 340.95L539.09 340.54L539.15 340.12L539.19 339.7L539.24 339.27L539.27 338.84L539.29 338.41L539.29 335.06L530.61 335.06L530.61 335.27Z" id="bcimxNKro"></path><path d="M563.35 314.04C563.24 311.95 563.14 310.17 563.14 308.39C563.95 308.39 570.48 308.39 571.29 308.39C571.29 309.86 571.29 311.22 571.4 312.58C571.5 314.04 571.5 315.4 571.5 316.97C571.52 316.97 571.69 316.97 571.71 316.97C572.24 315.71 573.18 314.56 574.12 313.31C575.27 312.05 576.42 311.11 577.88 310.17C579.35 309.23 581.02 308.5 582.9 307.97C584.78 307.45 586.67 307.24 588.97 307.24C589.49 307.24 590.22 307.24 590.75 307.35C591.27 307.45 592 307.56 592.52 307.76C592.47 308.63 592.05 315.58 592 316.44C590.54 316.03 588.97 315.82 587.29 315.82C581.96 315.82 578.2 317.49 575.69 320.94C573.39 324.39 572.13 329.1 572.13 334.95C572.13 336.63 572.13 345.04 572.13 360.16L563.56 360.16L563.56 320.63C563.49 317.56 563.42 315.36 563.35 314.04Z" id="gDhvnOhVy"></path><path d="M615.53 315.61C615.53 331.11 615.53 339.72 615.53 341.44C615.53 343.11 615.53 344.68 615.63 346.14C615.74 347.61 615.95 348.86 616.58 349.91C617.1 351.06 617.93 351.79 618.88 352.42C619.92 353.05 621.28 353.36 623.37 353.36C624.63 353.36 625.88 353.25 627.24 352.94C628.6 352.63 629.75 352.21 631.01 351.58C631.04 352.37 631.29 358.64 631.32 359.42C629.86 360.05 628.18 360.58 626.41 360.89C624.63 361.2 622.85 361.31 621.28 361.31C618.14 361.31 615.74 360.89 613.96 360.05C612.08 359.32 610.72 358.17 609.57 356.6C608.52 355.14 607.9 353.25 607.58 351.16C607.27 349.07 607.16 346.56 607.16 343.95C607.16 342.06 607.16 332.61 607.16 315.61L595.87 315.61L595.87 308.39L607.16 308.39L607.16 293.65L615.74 293.65L615.74 308.39L631.01 308.39L631.01 315.61L630.8 315.61L615.53 315.61Z" id="dNmt8y5nf"></path><path d="M299.9 317.69L312.7 317.69L312.7 361.27L299.9 361.27L299.9 317.69Z" id="edZonBa6S"></path></defs><g><g><use xlink:href="#a5xM4ijKI" opacity="1" fill="#fd8c3c" fill-opacity="1"></use><g><use xlink:href="#a5xM4ijKI" opacity="1" fill-opacity="0" stroke="#000000" stroke-width="1" stroke-opacity="0"></use></g></g><g><use xlink:href="#cUaoNffaf" opacity="1" fill="#fd8c3c" fill-opacity="1"></use><g><use xlink:href="#cUaoNffaf" opacity="1" fill-opacity="0" stroke="#000000" stroke-width="1" stroke-opacity="0"></use></g></g><g><use xlink:href="#eLlzG8qdH" opacity="1" fill="#fd8c3c" fill-opacity="1"></use><g><use xlink:href="#eLlzG8qdH" opacity="1" fill-opacity="0" stroke="#000000" stroke-width="1" stroke-opacity="0"></use></g></g><g><use xlink:href="#arWphBoUX" opacity="1" fill="#000000" fill-opacity="1"></use><g><use xlink:href="#arWphBoUX" opacity="1" fill-opacity="0" stroke="#000000" stroke-width="1" stroke-opacity="0"></use></g></g><g><use xlink:href="#c3g4pS8jLq" opacity="1" fill="#000000" fill-opacity="1"></use><g><use xlink:href="#c3g4pS8jLq" opacity="1" fill-opacity="0" stroke="#000000" stroke-width="1" stroke-opacity="0"></use></g></g><g><use xlink:href="#b7DMErhZw" opacity="1" fill="#000000" fill-opacity="1"></use><g><use xlink:href="#b7DMErhZw" opacity="1" fill-opacity="0" stroke="#000000" stroke-width="1" stroke-opacity="0"></use></g></g><g><use xlink:href="#aEsg306cI" opacity="1" fill="#000000" fill-opacity="1"></use><g><use xlink:href="#aEsg306cI" opacity="1" fill-opacity="0" stroke="#000000" stroke-width="1" stroke-opacity="0"></use></g></g><g><use xlink:href="#e9uiLeN4k" opacity="1" fill="#000000" fill-opacity="1"></use><g><use xlink:href="#e9uiLeN4k" opacity="1" fill-opacity="0" stroke="#000000" stroke-width="1" stroke-opacity="0"></use></g></g><g><use xlink:href="#buzCGFCya" opacity="1" fill="#000000" fill-opacity="1"></use><g><use xlink:href="#buzCGFCya" opacity="1" fill-opacity="0" stroke="#000000" stroke-width="1" stroke-opacity="0"></use></g></g><g><use xlink:href="#cjXbdLC4" opacity="1" fill="#000000" fill-opacity="1"></use><g><use xlink:href="#cjXbdLC4" opacity="1" fill-opacity="0" stroke="#000000" stroke-width="1" stroke-opacity="0"></use></g></g><g><use xlink:href="#bcimxNKro" opacity="1" fill="#000000" fill-opacity="1"></use><g><use xlink:href="#bcimxNKro" opacity="1" fill-opacity="0" stroke="#000000" stroke-width="1" stroke-opacity="0"></use></g></g><g><use xlink:href="#gDhvnOhVy" opacity="1" fill="#000000" fill-opacity="1"></use><g><use xlink:href="#gDhvnOhVy" opacity="1" fill-opacity="0" stroke="#000000" stroke-width="1" stroke-opacity="0"></use></g></g><g><use xlink:href="#dNmt8y5nf" opacity="1" fill="#000000" fill-opacity="1"></use><g><use xlink:href="#dNmt8y5nf" opacity="1" fill-opacity="0" stroke="#000000" stroke-width="1" stroke-opacity="0"></use></g></g><g><use xlink:href="#edZonBa6S" opacity="1" fill="#000000" fill-opacity="1"></use></g></g></svg>