<?xml version="1.0" encoding="UTF-8" standalone="no"?>
<svg
   xmlns:dc="http://purl.org/dc/elements/1.1/"
   xmlns:cc="http://creativecommons.org/ns#"
   xmlns:rdf="http://www.w3.org/1999/02/22-rdf-syntax-ns#"
   xmlns:svg="http://www.w3.org/2000/svg"
   xmlns="http://www.w3.org/2000/svg"
   xmlns:xlink="http://www.w3.org/1999/xlink"
   xmlns:sodipodi="http://sodipodi.sourceforge.net/DTD/sodipodi-0.dtd"
   xmlns:inkscape="http://www.inkscape.org/namespaces/inkscape"
   version="1.1"
   preserveAspectRatio="xMidYMid meet"
   viewBox="8.0980392 275.49673 82.527434 87.972565"
   width="82"
   height="84.019997"
   id="svg2119"
   sodipodi:docname="logo-orange-cropped.svg"
   inkscape:version="0.92.2 (unknown)">
  <metadata
     id="metadata2123">
    <rdf:RDF>
      <cc:Work
         rdf:about="">
        <dc:format>image/svg+xml</dc:format>
        <dc:type
           rdf:resource="http://purl.org/dc/dcmitype/StillImage" />
        <dc:title></dc:title>
      </cc:Work>
    </rdf:RDF>
  </metadata>
  <sodipodi:namedview
     pagecolor="#ffffff"
     bordercolor="#666666"
     borderopacity="1"
     objecttolerance="10"
     gridtolerance="10"
     guidetolerance="10"
     inkscape:pageopacity="0"
     inkscape:pageshadow="2"
     inkscape:window-width="1916"
     inkscape:window-height="1041"
     id="namedview2121"
     showgrid="false"
     inkscape:zoom="2.0507217"
     inkscape:cx="34.137586"
     inkscape:cy="42.509998"
     inkscape:window-x="1920"
     inkscape:window-y="18"
     inkscape:window-maximized="0"
     inkscape:current-layer="svg2119"
     inkscape:pagecheckerboard="false"
     width="50px" />
  <defs
     id="defs2007">
    <path
       d="m 72.26,358.17 c 4.08,4.18 10.88,4.08 15.06,0 4.18,-4.08 4.08,-10.88 0,-15.06 -4.08,-4.08 -10.88,-4.08 -15.06,0 -4.08,4.08 -4.08,10.88 0,15.06 z"
       id="a5xM4ijKI"
       inkscape:connector-curvature="0" />
    <path
       d="m 49.67,301.07 c 2.72,0 5.44,-1.04 7.43,-3.14 4.08,-4.07 4.08,-10.87 0,-15.05 -4.08,-4.19 -10.88,-4.08 -15.06,0 -2.09,2.09 -3.14,4.91 -3.14,7.63 -0.21,5.12 -2.19,10.14 -6.06,13.91 -3.77,3.76 -8.68,5.33 -13.7,5.33 0,0 0,0 0,0 -0.07,0 -0.1,0 -0.11,0 -0.21,0 -0.52,0 -0.73,0 -0.1,0 -0.1,0 -0.21,0 -0.21,0 -0.52,0.11 -0.73,0.11 -0.11,0 -0.11,0 -0.21,0 -0.21,0.1 -0.52,0.1 -0.73,0.21 -0.11,0 -0.21,0.1 -0.21,0.1 -0.21,0.1 -0.42,0.1 -0.63,0.21 -0.1,0 -0.21,0.1 -0.31,0.1 -0.21,0.11 -0.42,0.21 -0.63,0.32 -0.1,0.1 -0.21,0.1 -0.31,0.21 -0.21,0.1 -0.32,0.21 -0.53,0.31 -0.1,0.1 -0.31,0.21 -0.41,0.31 -0.11,0.11 -0.32,0.21 -0.42,0.32 -0.21,0.21 -0.53,0.42 -0.73,0.63 -2.1,2.09 -3.14,4.81 -3.14,7.52 0,2.83 1.04,5.44 3.14,7.53 0.2,0.21 0.52,0.42 0.73,0.74 0.1,0.1 0.21,0.1 0.21,0.21 0.21,0.1 0.31,0.31 0.52,0.41 0.1,0.11 0.31,0.21 0.42,0.21 0.1,0.11 0.31,0.21 0.42,0.21 0.21,0.11 0.41,0.21 0.52,0.32 0.1,0 0.21,0.1 0.31,0.1 0.21,0.1 0.42,0.21 0.73,0.21 0.11,0 0.11,0 0.21,0.1 0.32,0.11 0.53,0.11 0.94,0.21 0.02,0 0.1,0 0.11,0 0.31,0.11 0.52,0.11 0.94,0.11 0,0 0,0 0.11,0 0.31,0 0.52,0 0.94,0.1 0,0 0,0 0.1,0 0,0 0,0 0,0 5.02,0 9.94,1.57 13.7,5.34 3.77,3.76 5.75,8.78 6.07,13.9 0,2.83 1.04,5.55 3.13,7.64 4.08,4.08 10.88,4.08 15.06,0 4.18,-4.08 4.08,-10.88 0,-15.06 -2.09,-2.09 -4.81,-3.14 -7.42,-3.14 -5.23,-0.1 -10.25,-2.09 -14.12,-6.06 -3.77,-3.77 -5.33,-8.58 -5.44,-13.49 0,-4.92 1.67,-9.83 5.44,-13.49 3.55,-3.04 8.57,-5.02 13.8,-5.13 0,0 0,0 0,0 z"
       id="cUaoNffaf"
       inkscape:connector-curvature="0" />
    <path
       d="m 87.32,282.88 c -4.08,-4.19 -10.88,-4.08 -15.06,0 -4.18,4.07 -4.08,10.87 0,15.05 4.08,4.19 10.98,4.08 15.06,0 4.08,-4.07 4.08,-10.87 0,-15.05 z"
       id="eLlzG8qdH"
       inkscape:connector-curvature="0" />
    <path
       d="m 144.21,281.83 v 62.22 h 31.89 v 15.9 h -49.15 v -78.12 z"
       id="arWphBoUX"
       inkscape:connector-curvature="0" />
    <path
       d="m 219.19,360.05 v -7.21 c -0.13,0 -0.2,0 -0.21,0 -0.52,1.04 -1.36,1.98 -2.2,3.13 -0.94,1.05 -1.98,1.99 -3.34,2.83 -1.36,0.73 -2.83,1.46 -4.6,1.98 -1.68,0.53 -3.56,0.74 -5.55,0.74 -4.18,0 -7.53,-0.63 -10.24,-1.89 -2.72,-1.36 -4.71,-3.13 -6.17,-5.33 -1.47,-2.2 -2.41,-5.02 -2.93,-8.05 -0.42,-3.14 -0.63,-6.49 -0.63,-10.04 0,-1.99 0,-11.92 0,-29.8 h 16.63 c 0,15.74 0,24.49 0,26.24 0,1.57 0.1,3.14 0.21,4.81 0.1,1.68 0.42,3.25 1.04,4.61 0.53,1.46 1.47,2.51 2.51,3.45 1.15,0.94 2.83,1.36 4.92,1.36 2.09,0 3.87,-0.32 5.23,-1.15 1.36,-0.74 2.3,-1.78 3.03,-3.14 0.63,-1.36 1.15,-2.83 1.36,-4.39 0.21,-1.68 0.31,-3.35 0.31,-5.13 0,-1.78 0,-10.66 0,-26.66 h 16.63 l -0.11,53.64 v 0 z"
       id="c3g4pS8jLq"
       inkscape:connector-curvature="0" />
    <path
       d="m 275.35,320.84 c -1.47,-0.74 -3.04,-1.15 -4.81,-1.15 -4.19,0 -7.43,1.25 -9.83,3.76 -2.3,2.41 -3.46,5.75 -3.46,9.83 0,3.97 1.16,7.32 3.46,9.83 2.3,2.51 5.54,3.77 9.83,3.77 1.88,0 3.45,-0.42 4.81,-1.26 1.36,-0.73 2.4,-1.78 3.45,-2.93 1.08,1.15 9.79,10.36 10.87,11.51 -2.51,2.72 -5.54,4.49 -9.09,5.54 -3.46,1.15 -6.8,1.57 -10.04,1.57 -4.08,0 -8.06,-0.63 -11.72,-1.99 -3.66,-1.36 -6.79,-3.24 -9.51,-5.65 -2.72,-2.4 -4.81,-5.43 -6.38,-8.89 -1.57,-3.45 -2.3,-7.32 -2.3,-11.6 0,-4.29 0.73,-8.16 2.3,-11.61 1.57,-3.45 3.66,-6.49 6.38,-8.89 2.72,-2.41 5.85,-4.39 9.51,-5.65 3.66,-1.36 7.53,-1.98 11.72,-1.98 3.13,0 6.48,0.52 10.04,1.56 3.45,1.15 6.58,2.93 9.09,5.55 -0.72,0.77 -4.35,4.64 -10.87,11.6 -1.33,-1.39 -2.48,-2.37 -3.45,-2.92 z"
       id="b7DMErhZw"
       inkscape:connector-curvature="0" />
    <path
       d="m 307.62,288.08 0.63,0.1 0.6,0.13 0.59,0.18 0.57,0.22 0.56,0.25 0.53,0.29 0.52,0.34 0.51,0.37 0.49,0.41 0.48,0.45 0.45,0.48 0.41,0.49 0.37,0.51 0.34,0.52 0.29,0.53 0.26,0.56 0.21,0.57 0.18,0.59 0.14,0.61 0.09,0.62 0.06,0.65 0.02,0.67 -0.02,0.67 -0.06,0.65 -0.09,0.63 -0.14,0.6 -0.18,0.59 -0.21,0.57 -0.26,0.56 -0.29,0.53 -0.34,0.52 -0.37,0.51 -0.41,0.49 -0.45,0.48 -0.48,0.45 -0.49,0.41 -0.51,0.37 -0.52,0.34 -0.53,0.29 -0.56,0.26 -0.57,0.21 -0.59,0.18 -0.6,0.14 -0.63,0.09 -0.65,0.06 -0.67,0.02 -0.67,-0.02 -0.65,-0.06 -0.62,-0.09 -0.61,-0.14 -0.59,-0.18 -0.57,-0.21 -0.56,-0.26 -0.53,-0.29 -0.52,-0.34 -0.51,-0.37 -0.49,-0.41 -0.48,-0.45 -0.43,-0.46 -0.39,-0.48 -0.37,-0.51 -0.33,-0.52 -0.29,-0.55 -0.27,-0.57 -0.22,-0.58 -0.18,-0.6 -0.15,-0.61 -0.1,-0.63 -0.07,-0.64 -0.02,-0.65 0.02,-0.67 0.06,-0.65 0.1,-0.62 0.13,-0.61 0.18,-0.59 0.22,-0.57 0.25,-0.56 0.29,-0.53 0.34,-0.52 0.37,-0.51 0.41,-0.49 0.45,-0.48 0.48,-0.45 0.49,-0.41 0.51,-0.37 0.52,-0.34 0.53,-0.29 0.56,-0.25 0.57,-0.22 0.59,-0.18 0.61,-0.13 0.62,-0.1 0.65,-0.06 0.67,-0.02 0.67,0.02 z"
       id="aEsg306cI"
       inkscape:connector-curvature="0" />
    <path
       d="m 363.19,360.05 v -7 h -0.21 l -0.05,0.07 -0.05,0.08 -0.05,0.08 -0.05,0.07 -0.05,0.08 -0.05,0.07 -0.06,0.08 -0.05,0.07 -0.06,0.07 -0.05,0.08 -0.06,0.07 -0.06,0.07 -0.06,0.07 -0.06,0.07 -0.06,0.08 -0.06,0.07 -0.07,0.07 -0.06,0.07 -0.06,0.07 -0.07,0.07 -0.06,0.07 -0.07,0.07 -0.06,0.07 -0.07,0.07 -0.07,0.07 -0.06,0.07 -0.07,0.08 -0.07,0.07 -0.07,0.07 -0.07,0.07 -0.07,0.07 -0.07,0.08 -0.07,0.07 -0.07,0.08 -0.07,0.07 -0.07,0.08 -0.07,0.07 -0.07,0.08 -0.07,0.08 -0.07,0.07 -0.09,0.08 -0.08,0.08 -0.09,0.08 -0.08,0.07 -0.09,0.08 -0.09,0.07 -0.09,0.07 -0.08,0.08 -0.09,0.07 -0.09,0.07 -0.08,0.07 -0.09,0.07 -0.09,0.07 -0.09,0.07 -0.09,0.07 -0.09,0.07 -0.09,0.07 -0.09,0.07 -0.09,0.06 -0.09,0.07 -0.1,0.07 -0.09,0.06 -0.09,0.07 -0.1,0.07 -0.09,0.06 -0.1,0.07 -0.1,0.06 -0.09,0.06 -0.1,0.07 -0.1,0.06 -0.1,0.07 -0.1,0.06 -0.1,0.06 -0.11,0.07 -0.1,0.06 -0.1,0.06 -0.11,0.06 -0.11,0.07 -0.1,0.06 -0.11,0.06 -0.11,0.06 -0.11,0.05 -0.12,0.06 -0.11,0.05 -0.11,0.06 -0.11,0.05 -0.11,0.06 -0.12,0.05 -0.11,0.05 -0.11,0.06 -0.12,0.05 -0.11,0.06 -0.12,0.05 -0.11,0.05 -0.12,0.06 -0.12,0.05 -0.12,0.05 -0.11,0.05 -0.12,0.05 -0.12,0.05 -0.12,0.06 -0.12,0.05 -0.12,0.05 -0.12,0.05 -0.13,0.04 -0.12,0.05 -0.12,0.05 -0.13,0.05 -0.12,0.05 -0.13,0.04 -0.13,0.05 -0.12,0.04 -0.13,0.05 -0.13,0.04 -0.13,0.04 -0.13,0.05 -0.13,0.04 -0.13,0.04 -0.13,0.04 -0.13,0.04 -0.14,0.04 -0.13,0.04 -0.13,0.03 -0.14,0.04 -0.13,0.03 -0.13,0.03 -0.14,0.04 -0.13,0.03 -0.13,0.03 -0.14,0.02 -0.13,0.03 -0.13,0.03 -0.14,0.02 -0.13,0.03 -0.13,0.02 -0.14,0.02 -0.13,0.02 -0.13,0.02 -0.14,0.02 -0.13,0.02 -0.13,0.02 -0.14,0.02 -0.13,0.01 -0.13,0.01 -0.14,0.02 -0.13,0.01 -0.13,0.01 -0.14,0.01 -0.13,0.01 -0.13,0.01 -0.14,0.01 -0.13,0.01 h -0.13 l -0.14,0.01 h -0.13 l -0.13,0.01 h -0.14 -0.13 -0.13 -0.14 -0.3 -0.29 l -0.3,-0.01 -0.29,-0.01 -0.29,-0.01 -0.29,-0.01 -0.29,-0.02 -0.28,-0.01 -0.29,-0.02 -0.28,-0.03 -0.28,-0.02 -0.28,-0.03 -0.28,-0.03 -0.28,-0.03 -0.28,-0.04 -0.27,-0.04 -0.28,-0.04 -0.27,-0.04 -0.27,-0.04 -0.27,-0.05 -0.27,-0.05 -0.26,-0.06 -0.27,-0.05 -0.26,-0.06 -0.26,-0.06 -0.27,-0.06 -0.26,-0.07 -0.25,-0.07 -0.26,-0.07 -0.26,-0.07 -0.25,-0.08 -0.26,-0.08 -0.25,-0.08 -0.25,-0.08 -0.25,-0.09 -0.25,-0.09 -0.24,-0.09 -0.25,-0.1 -0.25,-0.09 -0.24,-0.11 -0.24,-0.1 -0.24,-0.1 -0.24,-0.11 -0.24,-0.11 -0.24,-0.11 -0.23,-0.11 -0.23,-0.12 -0.23,-0.11 -0.23,-0.12 -0.23,-0.12 -0.23,-0.13 -0.22,-0.12 -0.22,-0.13 -0.22,-0.13 -0.22,-0.13 -0.22,-0.13 -0.22,-0.14 -0.21,-0.14 -0.21,-0.14 -0.22,-0.14 -0.2,-0.14 -0.21,-0.15 -0.21,-0.15 -0.2,-0.15 -0.2,-0.15 -0.2,-0.16 -0.2,-0.15 -0.2,-0.16 -0.19,-0.17 -0.19,-0.16 -0.19,-0.17 -0.19,-0.17 -0.19,-0.17 -0.18,-0.17 -0.19,-0.17 -0.18,-0.18 -0.18,-0.18 -0.18,-0.19 -0.17,-0.18 -0.18,-0.19 -0.17,-0.18 -0.17,-0.18 -0.16,-0.19 -0.17,-0.18 -0.16,-0.19 -0.17,-0.19 -0.15,-0.2 -0.16,-0.19 -0.16,-0.2 -0.15,-0.2 -0.15,-0.2 -0.15,-0.2 -0.15,-0.21 -0.15,-0.2 -0.14,-0.21 -0.14,-0.21 -0.15,-0.22 -0.13,-0.21 -0.14,-0.22 -0.13,-0.22 -0.14,-0.22 -0.13,-0.22 -0.13,-0.22 -0.12,-0.23 -0.13,-0.23 -0.12,-0.23 -0.12,-0.23 -0.12,-0.24 -0.11,-0.23 -0.12,-0.24 -0.11,-0.24 -0.11,-0.24 -0.11,-0.25 -0.11,-0.24 -0.1,-0.25 -0.11,-0.25 -0.1,-0.25 -0.1,-0.26 -0.09,-0.25 -0.1,-0.26 -0.09,-0.25 -0.09,-0.26 -0.09,-0.25 -0.09,-0.26 -0.08,-0.26 -0.08,-0.25 -0.08,-0.27 -0.08,-0.26 -0.07,-0.26 -0.07,-0.27 -0.07,-0.26 -0.07,-0.27 -0.06,-0.27 -0.07,-0.27 -0.06,-0.28 -0.05,-0.27 -0.06,-0.28 -0.05,-0.27 -0.05,-0.28 -0.05,-0.28 -0.05,-0.28 -0.04,-0.28 -0.04,-0.29 -0.04,-0.28 -0.04,-0.29 -0.03,-0.29 -0.03,-0.29 -0.03,-0.29 -0.03,-0.29 -0.02,-0.29 -0.03,-0.3 -0.02,-0.29 -0.01,-0.3 -0.02,-0.3 -0.01,-0.3 -0.01,-0.3 -0.01,-0.3 -0.01,-0.3 v -0.31 -0.3 -0.28 -0.28 l 0.01,-0.28 v -0.28 l 0.01,-0.28 0.01,-0.28 0.02,-0.28 0.01,-0.28 0.02,-0.27 0.02,-0.28 0.02,-0.27 0.02,-0.28 0.03,-0.27 0.03,-0.27 0.03,-0.27 0.03,-0.27 0.03,-0.28 0.04,-0.27 0.03,-0.26 0.04,-0.27 0.05,-0.27 0.04,-0.27 0.05,-0.27 0.05,-0.26 0.05,-0.27 0.05,-0.27 0.06,-0.26 0.05,-0.26 0.06,-0.27 0.07,-0.26 0.06,-0.27 0.07,-0.26 0.07,-0.26 0.07,-0.26 0.07,-0.26 0.08,-0.26 0.07,-0.26 0.08,-0.26 0.09,-0.26 0.08,-0.26 0.09,-0.26 0.09,-0.26 0.09,-0.25 0.09,-0.25 0.1,-0.26 0.09,-0.25 0.1,-0.25 0.1,-0.24 0.11,-0.25 0.1,-0.24 0.11,-0.24 0.11,-0.24 0.11,-0.24 0.11,-0.24 0.11,-0.24 0.12,-0.23 0.11,-0.24 0.12,-0.23 0.12,-0.23 0.13,-0.22 0.12,-0.23 0.13,-0.23 0.13,-0.22 0.13,-0.22 0.13,-0.22 0.13,-0.22 0.13,-0.22 0.14,-0.21 0.14,-0.22 0.14,-0.21 0.14,-0.21 0.14,-0.21 0.15,-0.21 0.14,-0.21 0.15,-0.2 0.15,-0.2 0.15,-0.2 0.16,-0.2 0.15,-0.2 0.16,-0.2 0.16,-0.2 0.16,-0.2 0.16,-0.2 0.16,-0.2 0.17,-0.19 0.16,-0.19 0.17,-0.19 0.17,-0.19 0.18,-0.18 0.17,-0.18 0.18,-0.18 0.18,-0.18 0.18,-0.18 0.18,-0.17 0.18,-0.17 0.18,-0.17 0.19,-0.16 0.19,-0.17 0.19,-0.16 0.19,-0.16 0.19,-0.16 0.2,-0.15 0.19,-0.16 0.2,-0.15 0.2,-0.15 0.2,-0.15 0.2,-0.14 0.21,-0.14 0.2,-0.14 0.21,-0.14 0.2,-0.14 0.21,-0.13 0.21,-0.14 0.22,-0.13 0.21,-0.13 0.21,-0.12 0.22,-0.13 0.21,-0.12 0.22,-0.12 0.22,-0.12 0.23,-0.12 0.23,-0.11 0.23,-0.11 0.23,-0.1 0.24,-0.11 0.23,-0.1 0.24,-0.1 0.24,-0.09 0.24,-0.09 0.24,-0.09 0.25,-0.09 0.24,-0.08 0.25,-0.08 0.24,-0.07 0.25,-0.08 0.25,-0.07 0.26,-0.06 0.25,-0.07 0.25,-0.06 0.26,-0.06 0.26,-0.05 0.26,-0.06 0.26,-0.04 0.26,-0.05 0.26,-0.05 0.27,-0.04 0.26,-0.03 0.27,-0.04 0.27,-0.03 0.27,-0.03 0.27,-0.03 0.27,-0.02 0.27,-0.02 0.28,-0.02 0.27,-0.02 0.28,-0.01 0.28,-0.01 h 0.28 l 0.28,-0.01 h 0.28 0.26 0.26 l 0.25,0.01 0.26,0.01 h 0.25 l 0.26,0.02 0.25,0.01 0.26,0.01 0.25,0.02 0.25,0.02 0.25,0.02 0.25,0.02 0.25,0.03 0.25,0.02 0.24,0.03 0.25,0.03 0.25,0.03 0.24,0.04 0.25,0.03 0.24,0.04 0.24,0.04 0.24,0.04 0.25,0.05 0.24,0.05 0.24,0.04 0.23,0.05 0.24,0.06 0.24,0.05 0.24,0.05 0.23,0.06 0.24,0.06 0.23,0.06 0.23,0.07 0.24,0.06 0.23,0.07 0.23,0.07 0.23,0.07 0.23,0.08 0.23,0.07 0.23,0.08 0.22,0.09 0.23,0.09 0.22,0.09 0.22,0.09 0.21,0.1 0.22,0.1 0.21,0.1 0.21,0.11 0.21,0.1 0.2,0.11 0.21,0.11 0.2,0.12 0.2,0.11 0.19,0.12 0.2,0.12 0.19,0.13 0.19,0.12 0.19,0.13 0.18,0.13 0.19,0.14 0.18,0.13 0.18,0.14 0.17,0.15 0.18,0.14 0.17,0.15 0.17,0.15 0.17,0.15 0.17,0.15 0.16,0.16 0.16,0.16 0.16,0.16 0.16,0.17 0.16,0.17 0.15,0.17 0.15,0.17 0.15,0.18 0.15,0.17 0.15,0.19 0.14,0.18 0.15,0.19 h 0.2 V 276.6 h 16.63 l -0.1,83.45 z m -14.72,-40.42 -0.69,0.07 -0.67,0.09 -0.65,0.12 -0.63,0.14 -0.62,0.17 -0.59,0.2 -0.58,0.22 -0.56,0.24 -0.54,0.28 -0.52,0.3 -0.5,0.32 -0.49,0.35 -0.47,0.38 -0.45,0.41 -0.43,0.43 -0.4,0.43 -0.37,0.45 -0.34,0.48 -0.32,0.49 -0.3,0.51 -0.28,0.53 -0.25,0.54 -0.23,0.57 -0.2,0.58 -0.18,0.6 -0.15,0.61 -0.13,0.63 -0.11,0.65 -0.09,0.67 -0.05,0.68 -0.04,0.69 -0.01,0.72 0.01,0.71 0.04,0.69 0.05,0.68 0.09,0.66 0.11,0.64 0.13,0.63 0.15,0.61 0.18,0.59 0.2,0.58 0.23,0.56 0.25,0.54 0.28,0.53 0.3,0.51 0.32,0.5 0.34,0.48 0.37,0.47 0.4,0.45 0.41,0.43 0.44,0.4 0.45,0.38 0.48,0.35 0.5,0.33 0.51,0.3 0.54,0.27 0.55,0.25 0.58,0.22 0.6,0.19 0.61,0.17 0.64,0.15 0.66,0.11 0.69,0.09 0.7,0.07 0.72,0.04 0.75,0.01 0.73,-0.01 0.71,-0.04 0.69,-0.07 0.67,-0.09 0.65,-0.11 0.63,-0.15 0.61,-0.17 0.6,-0.19 0.58,-0.22 0.55,-0.25 0.54,-0.27 0.53,-0.3 0.5,-0.33 0.49,-0.35 0.46,-0.38 0.46,-0.4 0.43,-0.43 0.39,-0.44 0.37,-0.45 0.35,-0.47 0.32,-0.49 0.3,-0.51 0.27,-0.53 0.26,-0.55 0.22,-0.56 0.21,-0.58 0.17,-0.6 0.16,-0.62 0.13,-0.63 0.11,-0.65 0.08,-0.66 0.06,-0.68 0.04,-0.7 0.01,-0.71 -0.01,-0.7 -0.04,-0.68 -0.06,-0.67 -0.08,-0.65 -0.11,-0.64 -0.13,-0.63 -0.16,-0.61 -0.17,-0.6 -0.21,-0.58 -0.22,-0.56 -0.26,-0.55 -0.27,-0.54 -0.3,-0.52 -0.32,-0.5 -0.35,-0.48 -0.37,-0.47 -0.39,-0.45 -0.42,-0.42 -0.43,-0.39 -0.46,-0.37 -0.47,-0.34 -0.5,-0.33 -0.51,-0.3 -0.54,-0.27 -0.56,-0.25 -0.57,-0.23 -0.6,-0.2 -0.62,-0.17 -0.64,-0.15 -0.66,-0.13 -0.68,-0.09 -0.7,-0.07 -0.73,-0.04 -0.74,-0.02 -0.73,0.01 z"
       id="e9uiLeN4k"
       inkscape:connector-curvature="0" />
    <path
       d="m 424.89,316.44 c -2.09,-1.04 -4.5,-1.46 -7.01,-1.46 -2.93,0 -5.44,0.42 -7.53,1.46 -2.19,1.05 -3.97,2.31 -5.43,4.08 -1.47,1.78 -2.51,3.77 -3.25,6.17 -0.73,2.3 -1.15,4.81 -1.15,7.43 0,2.61 0.42,5.12 1.26,7.42 0.94,2.3 1.98,4.39 3.55,6.17 1.47,1.78 3.35,3.14 5.44,4.08 2.09,0.94 4.6,1.46 7.11,1.46 5.65,0 10.04,-2.09 13.18,-6.37 0.64,0.61 5.74,5.55 6.38,6.17 -2.41,2.92 -5.44,5.02 -8.79,6.27 -3.34,1.36 -6.9,1.99 -10.66,1.99 -3.98,0 -7.53,-0.63 -10.88,-1.99 -3.35,-1.36 -6.17,-3.24 -8.47,-5.65 -2.3,-2.4 -4.08,-5.33 -5.44,-8.57 -1.36,-3.35 -1.88,-6.9 -1.88,-10.88 0,-3.87 0.63,-7.42 1.88,-10.77 1.36,-3.35 3.14,-6.27 5.44,-8.57 2.3,-2.41 5.12,-4.4 8.47,-5.65 3.24,-1.36 6.9,-1.99 10.88,-1.99 3.76,0 7.42,0.63 10.87,1.99 3.45,1.36 6.49,3.35 9,6.27 -0.48,0.39 -2.85,2.3 -7.11,5.75 -2.51,-2.5 -4.47,-4.11 -5.86,-4.81 z"
       id="buzCGFCya"
       inkscape:connector-curvature="0" />
    <path
       d="m 447.16,276.5 h 8.58 v 39 c 0.12,0 0.19,0 0.21,0 0.52,-1.04 1.46,-1.98 2.4,-3.03 0.94,-1.05 2.2,-1.88 3.66,-2.72 1.47,-0.73 3.04,-1.46 4.81,-1.99 1.78,-0.52 3.66,-0.73 5.65,-0.73 3.35,0 6.38,0.53 8.78,1.57 2.41,1.05 4.5,2.41 6.17,4.39 1.68,1.89 2.83,4.08 3.56,6.7 0.73,2.61 1.15,5.43 1.15,8.57 0,2.13 0,12.76 0,31.9 h -8.57 c 0,-18.64 0,-28.99 0,-31.06 0,-4.39 -1.05,-7.85 -2.93,-10.25 -1.88,-2.41 -4.92,-3.77 -8.89,-3.77 -2.82,0 -5.23,0.42 -7.22,1.47 -1.98,1.04 -3.66,2.3 -5.02,4.08 -1.36,1.78 -2.19,3.87 -2.92,6.27 -0.63,2.41 -0.95,5.13 -0.95,8.05 0,1.68 0,10.09 0,25.21 h -8.57 V 276.5 Z"
       id="cjXbdLC4"
       inkscape:connector-curvature="0" />
    <path
       d="m 527.56,307.05 0.55,0.01 0.55,0.03 0.54,0.03 0.53,0.03 0.52,0.05 0.51,0.05 0.51,0.05 0.49,0.07 0.49,0.07 0.49,0.08 0.47,0.08 0.47,0.09 0.46,0.1 0.45,0.1 0.44,0.11 0.44,0.12 0.42,0.13 0.42,0.13 0.42,0.14 0.4,0.14 0.4,0.16 0.38,0.16 0.38,0.16 0.38,0.17 0.36,0.18 0.36,0.19 0.35,0.2 0.34,0.2 0.33,0.2 0.33,0.22 0.31,0.22 0.31,0.23 0.31,0.24 0.29,0.24 0.29,0.25 0.28,0.26 0.27,0.26 0.26,0.27 0.25,0.27 0.24,0.28 0.24,0.28 0.23,0.3 0.22,0.3 0.22,0.3 0.21,0.32 0.21,0.32 0.2,0.33 0.19,0.34 0.19,0.34 0.18,0.35 0.18,0.36 0.17,0.37 0.16,0.37 0.16,0.38 0.15,0.39 0.14,0.4 0.14,0.4 0.14,0.41 0.12,0.42 0.12,0.42 0.12,0.43 0.1,0.44 0.1,0.45 0.1,0.45 0.09,0.46 0.08,0.47 0.07,0.48 0.07,0.48 0.07,0.49 0.05,0.5 0.05,0.5 0.04,0.51 0.04,0.52 0.03,0.52 0.02,0.53 0.02,0.54 0.01,0.55 v 0.55 22.17 0.11 0.11 0.11 l 0.01,0.12 v 0.11 0.11 0.11 0.11 l 0.01,0.12 v 0.11 0.11 l 0.01,0.12 v 0.11 l 0.01,0.11 v 0.12 l 0.01,0.11 v 0.12 l 0.01,0.11 v 0.12 l 0.01,0.11 v 0.12 l 0.01,0.12 0.01,0.11 v 0.12 l 0.01,0.12 0.01,0.11 v 0.12 l 0.01,0.12 0.01,0.11 0.01,0.12 v 0.12 l 0.01,0.11 0.01,0.12 0.01,0.12 v 0.12 l 0.01,0.11 0.01,0.12 0.01,0.12 v 0.12 l 0.01,0.11 0.01,0.12 0.01,0.12 0.01,0.12 0.01,0.11 0.01,0.12 0.01,0.11 0.01,0.12 0.01,0.11 0.01,0.12 0.01,0.11 0.01,0.12 0.01,0.11 0.01,0.11 0.02,0.11 0.01,0.12 0.01,0.11 0.01,0.11 0.02,0.11 0.01,0.11 0.01,0.11 0.02,0.11 0.01,0.11 0.02,0.11 0.01,0.11 0.02,0.1 0.01,0.11 0.01,0.11 0.02,0.11 0.01,0.1 0.02,0.11 0.02,0.1 0.01,0.11 0.02,0.1 0.01,0.11 0.02,0.1 0.01,0.11 0.02,0.1 0.01,0.1 0.02,0.1 0.02,0.11 h -8.27 l -0.02,-0.1 -0.02,-0.09 -0.02,-0.09 -0.02,-0.1 -0.02,-0.09 -0.02,-0.09 -0.02,-0.09 -0.02,-0.1 -0.02,-0.09 -0.01,-0.09 -0.02,-0.09 -0.02,-0.1 -0.01,-0.09 -0.01,-0.09 -0.02,-0.09 -0.01,-0.1 -0.01,-0.09 -0.01,-0.09 -0.01,-0.1 -0.01,-0.09 -0.01,-0.09 -0.01,-0.1 -0.01,-0.09 -0.01,-0.1 -0.01,-0.1 v -0.09 l -0.01,-0.1 v -0.1 l -0.01,-0.1 v -0.1 l -0.01,-0.1 v -0.1 -0.1 l -0.01,-0.1 v -0.11 -0.1 -0.11 -0.11 -0.1 -0.22 l -0.01,-0.11 v -0.11 -0.11 -0.1 -0.11 -0.1 l -0.01,-0.11 v -0.1 -0.1 -0.1 l -0.01,-0.1 v -0.1 -0.1 l -0.01,-0.1 v -0.1 l -0.01,-0.1 v -0.09 -0.1 l -0.01,-0.09 v -0.1 -0.09 l -0.01,-0.09 v -0.09 l -0.01,-0.09 v -0.09 -0.09 l -0.01,-0.09 v -0.09 -0.08 l -0.01,-0.09 v -0.08 -0.09 -0.08 -0.09 l -0.01,-0.08 v -0.08 -0.08 -0.08 -0.08 h -0.21 l -0.13,0.21 -0.12,0.2 -0.14,0.19 -0.13,0.2 -0.14,0.19 -0.13,0.19 -0.14,0.19 -0.15,0.19 -0.14,0.19 -0.15,0.18 -0.15,0.18 -0.15,0.18 -0.16,0.17 -0.15,0.18 -0.16,0.17 -0.16,0.17 -0.16,0.17 -0.17,0.16 -0.17,0.17 -0.17,0.16 -0.17,0.16 -0.17,0.15 -0.18,0.16 -0.18,0.15 -0.18,0.16 -0.18,0.15 -0.18,0.15 -0.19,0.14 -0.19,0.15 -0.19,0.14 -0.19,0.14 -0.2,0.14 -0.19,0.14 -0.2,0.13 -0.2,0.14 -0.2,0.13 -0.21,0.13 -0.21,0.13 -0.21,0.13 -0.21,0.13 -0.21,0.12 -0.21,0.12 -0.22,0.12 -0.22,0.11 -0.22,0.11 -0.23,0.11 -0.23,0.11 -0.22,0.1 -0.24,0.1 -0.23,0.09 -0.24,0.1 -0.23,0.09 -0.24,0.08 -0.25,0.09 -0.24,0.08 -0.25,0.07 -0.25,0.08 -0.25,0.07 -0.25,0.06 -0.26,0.07 -0.26,0.06 -0.26,0.06 -0.26,0.05 -0.26,0.05 -0.27,0.05 -0.27,0.05 -0.27,0.04 -0.27,0.04 -0.28,0.04 -0.27,0.03 -0.28,0.03 -0.28,0.03 -0.29,0.02 -0.28,0.02 -0.29,0.02 -0.29,0.01 -0.29,0.01 -0.29,0.01 h -0.3 l -0.29,0.01 h -0.21 l -0.2,-0.01 h -0.2 -0.2 l -0.2,-0.01 -0.2,-0.01 h -0.19 l -0.2,-0.01 -0.19,-0.01 -0.2,-0.01 -0.19,-0.02 -0.19,-0.01 -0.19,-0.02 -0.19,-0.01 -0.19,-0.02 -0.19,-0.02 -0.19,-0.02 -0.18,-0.02 -0.19,-0.03 -0.18,-0.02 -0.19,-0.03 -0.18,-0.03 -0.18,-0.02 -0.18,-0.04 -0.19,-0.03 -0.18,-0.03 -0.18,-0.03 -0.17,-0.04 -0.18,-0.04 -0.18,-0.04 -0.18,-0.04 -0.17,-0.04 -0.18,-0.04 -0.18,-0.05 -0.17,-0.04 -0.18,-0.05 -0.17,-0.05 -0.17,-0.05 -0.18,-0.06 -0.17,-0.05 -0.17,-0.05 -0.17,-0.05 -0.17,-0.05 -0.17,-0.05 -0.17,-0.05 -0.17,-0.06 -0.17,-0.06 -0.16,-0.05 -0.17,-0.06 -0.16,-0.07 -0.17,-0.06 -0.16,-0.06 -0.16,-0.07 -0.16,-0.06 -0.16,-0.07 -0.16,-0.07 -0.16,-0.07 -0.16,-0.07 -0.15,-0.07 -0.16,-0.08 -0.15,-0.07 -0.16,-0.08 -0.15,-0.08 -0.15,-0.08 -0.15,-0.08 -0.15,-0.08 -0.15,-0.08 -0.15,-0.08 -0.14,-0.08 -0.15,-0.09 -0.14,-0.08 -0.15,-0.09 -0.14,-0.09 -0.14,-0.09 -0.14,-0.09 -0.14,-0.09 -0.13,-0.09 -0.14,-0.09 -0.14,-0.09 -0.13,-0.1 -0.12,-0.1 -0.13,-0.1 -0.12,-0.11 -0.12,-0.1 -0.13,-0.11 -0.12,-0.1 -0.12,-0.11 -0.12,-0.11 -0.11,-0.11 -0.12,-0.11 -0.12,-0.11 -0.11,-0.11 -0.11,-0.11 -0.12,-0.12 -0.11,-0.11 -0.11,-0.12 -0.1,-0.11 -0.11,-0.12 -0.11,-0.12 -0.1,-0.12 -0.11,-0.12 -0.1,-0.12 -0.1,-0.12 -0.1,-0.12 -0.09,-0.13 -0.1,-0.12 -0.09,-0.13 -0.1,-0.13 -0.09,-0.12 -0.09,-0.13 -0.09,-0.13 -0.08,-0.14 -0.09,-0.13 -0.08,-0.13 -0.08,-0.14 -0.08,-0.13 -0.08,-0.14 -0.07,-0.14 -0.08,-0.14 -0.07,-0.14 -0.07,-0.14 -0.08,-0.14 -0.07,-0.15 -0.08,-0.14 -0.07,-0.15 -0.06,-0.15 -0.07,-0.15 -0.06,-0.15 -0.06,-0.15 -0.06,-0.15 -0.06,-0.15 -0.06,-0.16 -0.05,-0.15 -0.05,-0.16 -0.05,-0.16 -0.05,-0.16 -0.05,-0.16 -0.04,-0.16 -0.04,-0.16 -0.04,-0.17 -0.04,-0.16 -0.04,-0.17 -0.03,-0.17 -0.04,-0.17 -0.03,-0.17 -0.02,-0.17 -0.03,-0.17 -0.02,-0.17 -0.03,-0.18 -0.02,-0.17 -0.02,-0.18 -0.01,-0.18 -0.02,-0.18 -0.01,-0.18 -0.01,-0.18 -0.01,-0.18 -0.01,-0.19 v -0.18 l -0.01,-0.19 v -0.19 l 0.01,-0.31 v -0.31 l 0.01,-0.3 0.02,-0.31 0.02,-0.3 0.02,-0.29 0.03,-0.3 0.03,-0.29 0.04,-0.28 0.04,-0.29 0.04,-0.28 0.05,-0.28 0.05,-0.27 0.06,-0.27 0.06,-0.27 0.07,-0.26 0.07,-0.27 0.07,-0.26 0.08,-0.25 0.08,-0.25 0.09,-0.25 0.09,-0.25 0.1,-0.24 0.09,-0.24 0.11,-0.24 0.1,-0.23 0.11,-0.23 0.12,-0.23 0.12,-0.23 0.12,-0.22 0.13,-0.21 0.13,-0.22 0.13,-0.21 0.14,-0.21 0.15,-0.21 0.14,-0.2 0.15,-0.2 0.16,-0.19 0.16,-0.2 0.16,-0.19 0.17,-0.17 0.16,-0.18 0.17,-0.18 0.18,-0.17 0.17,-0.17 0.17,-0.17 0.18,-0.16 0.18,-0.16 0.18,-0.16 0.19,-0.16 0.18,-0.16 0.19,-0.15 0.19,-0.16 0.19,-0.14 0.2,-0.15 0.19,-0.15 0.2,-0.14 0.2,-0.14 0.2,-0.14 0.21,-0.14 0.21,-0.13 0.21,-0.13 0.21,-0.13 0.21,-0.13 0.22,-0.13 0.21,-0.12 0.22,-0.12 0.23,-0.12 0.22,-0.12 0.23,-0.11 0.23,-0.12 0.23,-0.11 0.23,-0.11 0.24,-0.1 0.24,-0.11 0.24,-0.1 0.24,-0.1 0.24,-0.1 0.25,-0.1 0.25,-0.09 0.25,-0.1 0.24,-0.09 0.25,-0.09 0.24,-0.08 0.25,-0.09 0.25,-0.08 0.25,-0.08 0.25,-0.07 0.26,-0.08 0.25,-0.07 0.26,-0.07 0.25,-0.07 0.26,-0.07 0.26,-0.06 0.26,-0.07 0.26,-0.06 0.26,-0.06 0.26,-0.05 0.26,-0.06 0.27,-0.05 0.26,-0.06 0.27,-0.05 0.27,-0.05 0.26,-0.04 0.27,-0.05 0.27,-0.04 0.27,-0.04 0.27,-0.04 0.28,-0.04 0.27,-0.04 0.28,-0.04 0.27,-0.03 0.28,-0.03 0.27,-0.04 0.28,-0.03 0.28,-0.03 0.28,-0.02 0.28,-0.03 0.28,-0.03 0.28,-0.02 0.29,-0.02 0.28,-0.02 0.28,-0.03 0.27,-0.02 0.28,-0.02 0.28,-0.02 0.27,-0.02 0.28,-0.01 0.27,-0.02 0.27,-0.02 0.27,-0.01 0.27,-0.02 0.27,-0.01 0.27,-0.02 0.26,-0.01 0.27,-0.01 0.26,-0.01 0.27,-0.02 0.26,-0.01 0.26,-0.01 0.26,-0.01 h 0.26 l 0.26,-0.01 0.25,-0.01 0.26,-0.01 h 0.26 l 0.25,-0.01 0.25,-0.01 h 0.26 l 0.25,-0.01 h 0.25 0.25 l 0.25,-0.01 h 0.25 0.25 0.24 l 0.25,-0.01 h 0.24 0.25 0.24 3.35 v -1.57 -0.28 l -0.01,-0.27 -0.01,-0.28 -0.02,-0.27 -0.02,-0.26 -0.02,-0.27 -0.03,-0.26 -0.03,-0.25 -0.04,-0.25 -0.04,-0.25 -0.04,-0.25 -0.05,-0.24 -0.05,-0.24 -0.06,-0.23 -0.06,-0.23 -0.07,-0.23 -0.07,-0.23 -0.07,-0.22 -0.08,-0.21 -0.08,-0.22 -0.09,-0.21 -0.09,-0.2 -0.09,-0.21 -0.1,-0.2 -0.1,-0.19 -0.11,-0.19 -0.11,-0.19 -0.12,-0.19 -0.12,-0.18 -0.12,-0.18 -0.13,-0.17 -0.13,-0.17 -0.13,-0.17 -0.14,-0.17 -0.14,-0.16 -0.15,-0.15 -0.15,-0.16 -0.16,-0.15 -0.16,-0.14 -0.16,-0.15 -0.17,-0.14 -0.17,-0.13 -0.17,-0.14 -0.18,-0.13 -0.18,-0.12 -0.18,-0.13 -0.19,-0.12 -0.19,-0.11 -0.2,-0.12 -0.19,-0.11 -0.21,-0.11 -0.2,-0.1 -0.21,-0.1 -0.21,-0.1 -0.22,-0.09 -0.22,-0.09 -0.23,-0.09 -0.22,-0.08 -0.24,-0.08 -0.23,-0.08 -0.24,-0.07 -0.24,-0.07 -0.25,-0.06 -0.25,-0.07 -0.25,-0.05 -0.26,-0.06 -0.26,-0.05 -0.27,-0.05 -0.27,-0.04 -0.27,-0.04 -0.28,-0.04 -0.28,-0.03 -0.28,-0.03 -0.29,-0.03 -0.3,-0.02 -0.29,-0.01 -0.3,-0.02 -0.31,-0.01 h -0.3 l -0.31,-0.01 -0.22,0.01 h -0.21 -0.21 l -0.21,0.01 h -0.21 l -0.21,0.01 -0.21,0.01 -0.21,0.02 -0.21,0.01 -0.2,0.02 -0.21,0.01 -0.21,0.02 -0.21,0.02 -0.21,0.02 -0.2,0.03 -0.21,0.02 -0.21,0.03 -0.2,0.03 -0.21,0.03 -0.2,0.03 -0.21,0.04 -0.21,0.03 -0.2,0.04 -0.21,0.04 -0.2,0.04 -0.21,0.04 -0.2,0.05 -0.21,0.05 -0.2,0.04 -0.21,0.05 -0.2,0.06 -0.2,0.05 -0.21,0.06 -0.2,0.06 -0.21,0.06 -0.2,0.06 -0.2,0.06 -0.21,0.07 -0.2,0.06 -0.21,0.07 -0.2,0.08 -0.2,0.07 -0.2,0.07 -0.2,0.08 -0.2,0.08 -0.19,0.08 -0.2,0.08 -0.19,0.08 -0.19,0.08 -0.19,0.09 -0.19,0.09 -0.19,0.09 -0.18,0.09 -0.19,0.09 -0.18,0.1 -0.18,0.09 -0.18,0.1 -0.18,0.1 -0.18,0.1 -0.18,0.1 -0.17,0.11 -0.18,0.1 -0.17,0.11 -0.17,0.11 -0.18,0.11 -0.17,0.12 -0.16,0.11 -0.17,0.12 -0.17,0.12 -0.17,0.12 -0.16,0.13 -0.17,0.12 -0.16,0.13 -0.16,0.13 -0.16,0.13 -0.16,0.13 -0.16,0.13 -0.16,0.14 -0.16,0.14 -0.16,0.14 -5.64,-5.65 0.28,-0.23 0.29,-0.23 0.28,-0.23 0.28,-0.22 0.27,-0.21 0.28,-0.22 0.27,-0.2 0.27,-0.21 0.26,-0.2 0.27,-0.19 0.26,-0.19 0.26,-0.19 0.25,-0.18 0.26,-0.18 0.25,-0.18 0.25,-0.17 0.25,-0.17 0.24,-0.16 0.24,-0.16 0.24,-0.15 0.24,-0.15 0.23,-0.14 0.23,-0.14 0.23,-0.14 0.23,-0.13 0.22,-0.13 0.22,-0.13 0.22,-0.12 0.22,-0.11 0.22,-0.12 0.21,-0.1 0.21,-0.11 0.2,-0.1 0.21,-0.09 0.2,-0.09 0.2,-0.09 0.2,-0.08 0.19,-0.08 0.19,-0.07 0.19,-0.07 0.28,-0.11 0.29,-0.09 0.28,-0.1 0.28,-0.09 0.27,-0.09 0.28,-0.08 0.28,-0.08 0.28,-0.08 0.28,-0.08 0.27,-0.07 0.28,-0.07 0.28,-0.07 0.27,-0.07 0.28,-0.06 0.28,-0.06 0.27,-0.05 0.28,-0.06 0.27,-0.05 0.28,-0.05 0.28,-0.05 0.27,-0.04 0.28,-0.04 0.28,-0.04 0.28,-0.04 0.27,-0.03 0.28,-0.03 0.28,-0.03 0.28,-0.03 0.28,-0.02 0.28,-0.02 0.28,-0.02 0.28,-0.02 0.29,-0.02 0.28,-0.01 0.28,-0.01 0.29,-0.01 0.29,-0.01 h 0.28 l 0.29,-0.01 h 0.29 l 0.57,0.01 z m 3.05,28.22 -1.09,0.01 -1.06,0.03 -1.03,0.05 -1,0.07 -0.97,0.09 -0.94,0.11 -0.91,0.13 -0.88,0.15 -0.85,0.17 -0.82,0.19 -0.78,0.22 -0.76,0.24 -0.72,0.26 -0.7,0.28 -0.66,0.3 -0.63,0.32 -0.58,0.36 -0.55,0.37 -0.5,0.4 -0.46,0.43 -0.41,0.45 -0.38,0.48 -0.32,0.5 -0.29,0.53 -0.24,0.55 -0.2,0.58 -0.16,0.6 -0.11,0.63 -0.06,0.65 -0.03,0.68 0.02,0.63 0.04,0.61 0.08,0.59 0.1,0.56 0.14,0.54 0.16,0.51 0.19,0.48 0.22,0.46 0.25,0.44 0.27,0.41 0.31,0.38 0.32,0.36 0.36,0.34 0.38,0.31 0.4,0.28 0.43,0.26 0.45,0.24 0.46,0.23 0.49,0.2 0.5,0.19 0.52,0.17 0.53,0.15 0.55,0.13 0.56,0.11 0.58,0.09 0.59,0.08 0.61,0.06 0.62,0.04 0.63,0.03 0.64,0.01 0.48,-0.01 0.48,-0.02 0.47,-0.02 0.47,-0.04 0.46,-0.05 0.46,-0.06 0.45,-0.08 0.44,-0.08 0.44,-0.09 0.43,-0.11 0.42,-0.12 0.41,-0.13 0.41,-0.14 0.39,-0.15 0.38,-0.16 0.37,-0.19 0.37,-0.19 0.35,-0.2 0.35,-0.2 0.34,-0.2 0.33,-0.21 0.32,-0.22 0.31,-0.21 0.31,-0.23 0.3,-0.23 0.28,-0.24 0.29,-0.24 0.27,-0.26 0.26,-0.26 0.26,-0.26 0.24,-0.3 0.24,-0.3 0.23,-0.3 0.22,-0.3 0.22,-0.31 0.21,-0.31 0.2,-0.32 0.19,-0.33 0.19,-0.33 0.18,-0.33 0.17,-0.35 0.17,-0.35 0.16,-0.35 0.15,-0.37 0.15,-0.37 0.13,-0.38 0.11,-0.38 0.11,-0.38 0.11,-0.39 0.1,-0.39 0.09,-0.4 0.08,-0.39 0.08,-0.41 0.07,-0.4 0.07,-0.41 0.06,-0.42 0.04,-0.42 0.05,-0.43 0.03,-0.43 0.02,-0.43 v -3.35 h -8.68 z"
       id="bcimxNKro"
       inkscape:connector-curvature="0" />
    <path
       d="m 563.35,314.04 c -0.11,-2.09 -0.21,-3.87 -0.21,-5.65 0.81,0 7.34,0 8.15,0 0,1.47 0,2.83 0.11,4.19 0.1,1.46 0.1,2.82 0.1,4.39 0.02,0 0.19,0 0.21,0 0.53,-1.26 1.47,-2.41 2.41,-3.66 1.15,-1.26 2.3,-2.2 3.76,-3.14 1.47,-0.94 3.14,-1.67 5.02,-2.2 1.88,-0.52 3.77,-0.73 6.07,-0.73 0.52,0 1.25,0 1.78,0.11 0.52,0.1 1.25,0.21 1.77,0.41 -0.05,0.87 -0.47,7.82 -0.52,8.68 -1.46,-0.41 -3.03,-0.62 -4.71,-0.62 -5.33,0 -9.09,1.67 -11.6,5.12 -2.3,3.45 -3.56,8.16 -3.56,14.01 0,1.68 0,10.09 0,25.21 h -8.57 v -39.53 c -0.07,-3.07 -0.14,-5.27 -0.21,-6.59 z"
       id="gDhvnOhVy"
       inkscape:connector-curvature="0" />
    <path
       d="m 615.53,315.61 c 0,15.5 0,24.11 0,25.83 0,1.67 0,3.24 0.1,4.7 0.11,1.47 0.32,2.72 0.95,3.77 0.52,1.15 1.35,1.88 2.3,2.51 1.04,0.63 2.4,0.94 4.49,0.94 1.26,0 2.51,-0.11 3.87,-0.42 1.36,-0.31 2.51,-0.73 3.77,-1.36 0.03,0.79 0.28,7.06 0.31,7.84 -1.46,0.63 -3.14,1.16 -4.91,1.47 -1.78,0.31 -3.56,0.42 -5.13,0.42 -3.14,0 -5.54,-0.42 -7.32,-1.26 -1.88,-0.73 -3.24,-1.88 -4.39,-3.45 -1.05,-1.46 -1.67,-3.35 -1.99,-5.44 -0.31,-2.09 -0.42,-4.6 -0.42,-7.21 0,-1.89 0,-11.34 0,-28.34 h -11.29 v -7.22 h 11.29 v -14.74 h 8.58 v 14.74 h 15.27 v 7.22 h -0.21 z"
       id="dNmt8y5nf"
       inkscape:connector-curvature="0" />
    <path
       d="m 299.9,317.69 h 12.8 v 43.58 h -12.8 z"
       id="edZonBa6S"
       inkscape:connector-curvature="0" />
    <clipPath
       clipPathUnits="userSpaceOnUse"
       id="clipPath2684">
      <rect
         style="opacity:0;fill:#bd8c8c;fill-opacity:0.98019804;stroke:none;stroke-width:1.0470432;stroke-miterlimit:4;stroke-dasharray:none;stroke-opacity:0"
         id="rect2686"
         width="85.776276"
         height="85.265656"
         x="7.7173133"
         y="277.20837" />
    </clipPath>
    <clipPath
       clipPathUnits="userSpaceOnUse"
       id="clipPath2688">
      <rect
         style="opacity:0;fill:#bd8c8c;fill-opacity:0.98019804;stroke:none;stroke-width:1.0470432;stroke-miterlimit:4;stroke-dasharray:none;stroke-opacity:0"
         id="rect2690"
         width="85.776276"
         height="85.265656"
         x="7.7173133"
         y="277.20837" />
    </clipPath>
    <clipPath
       clipPathUnits="userSpaceOnUse"
       id="clipPath2692">
      <rect
         style="opacity:0;fill:#bd8c8c;fill-opacity:0.98019804;stroke:none;stroke-width:1.0470432;stroke-miterlimit:4;stroke-dasharray:none;stroke-opacity:0"
         id="rect2694"
         width="85.776276"
         height="85.265656"
         x="7.7173133"
         y="277.20837" />
    </clipPath>
  </defs>
  <g
     id="g2117"
     clip-path="url(#clipPath2692)"
     transform="translate(0,-1.0470031)">
    <g
       id="g2015">
      <use
         xlink:href="#a5xM4ijKI"
         id="use2009"
         style="opacity:1;fill:#fd8c3c;fill-opacity:1"
         x="0"
         y="0"
         width="100%"
         height="100%" />
      <g
         id="g2013">
        <use
           xlink:href="#a5xM4ijKI"
           id="use2011"
           style="opacity:1;fill-opacity:0;stroke:#000000;stroke-width:1;stroke-opacity:0"
           x="0"
           y="0"
           width="100%"
           height="100%" />
      </g>
    </g>
    <g
       id="g2023">
      <use
         xlink:href="#cUaoNffaf"
         id="use2017"
         style="opacity:1;fill:#fd8c3c;fill-opacity:1"
         x="0"
         y="0"
         width="100%"
         height="100%" />
      <g
         id="g2021">
        <use
           xlink:href="#cUaoNffaf"
           id="use2019"
           style="opacity:1;fill-opacity:0;stroke:#000000;stroke-width:1;stroke-opacity:0"
           x="0"
           y="0"
           width="100%"
           height="100%" />
      </g>
    </g>
    <g
       id="g2031">
      <use
         xlink:href="#eLlzG8qdH"
         id="use2025"
         style="opacity:1;fill:#fd8c3c;fill-opacity:1"
         x="0"
         y="0"
         width="100%"
         height="100%" />
      <g
         id="g2029">
        <use
           xlink:href="#eLlzG8qdH"
           id="use2027"
           style="opacity:1;fill-opacity:0;stroke:#000000;stroke-width:1;stroke-opacity:0"
           x="0"
           y="0"
           width="100%"
           height="100%" />
      </g>
    </g>
    <g
       id="g2039">
      <use
         xlink:href="#arWphBoUX"
         id="use2033"
         style="opacity:1;fill:#000000;fill-opacity:1"
         x="0"
         y="0"
         width="100%"
         height="100%" />
      <g
         id="g2037">
        <use
           xlink:href="#arWphBoUX"
           id="use2035"
           style="opacity:1;fill-opacity:0;stroke:#000000;stroke-width:1;stroke-opacity:0"
           x="0"
           y="0"
           width="100%"
           height="100%" />
      </g>
    </g>
    <g
       id="g2047">
      <use
         xlink:href="#c3g4pS8jLq"
         id="use2041"
         style="opacity:1;fill:#000000;fill-opacity:1"
         x="0"
         y="0"
         width="100%"
         height="100%" />
      <g
         id="g2045">
        <use
           xlink:href="#c3g4pS8jLq"
           id="use2043"
           style="opacity:1;fill-opacity:0;stroke:#000000;stroke-width:1;stroke-opacity:0"
           x="0"
           y="0"
           width="100%"
           height="100%" />
      </g>
    </g>
    <g
       id="g2055">
      <use
         xlink:href="#b7DMErhZw"
         id="use2049"
         style="opacity:1;fill:#000000;fill-opacity:1"
         x="0"
         y="0"
         width="100%"
         height="100%" />
      <g
         id="g2053">
        <use
           xlink:href="#b7DMErhZw"
           id="use2051"
           style="opacity:1;fill-opacity:0;stroke:#000000;stroke-width:1;stroke-opacity:0"
           x="0"
           y="0"
           width="100%"
           height="100%" />
      </g>
    </g>
    <g
       id="g2063">
      <use
         xlink:href="#aEsg306cI"
         id="use2057"
         style="opacity:1;fill:#000000;fill-opacity:1"
         x="0"
         y="0"
         width="100%"
         height="100%" />
      <g
         id="g2061">
        <use
           xlink:href="#aEsg306cI"
           id="use2059"
           style="opacity:1;fill-opacity:0;stroke:#000000;stroke-width:1;stroke-opacity:0"
           x="0"
           y="0"
           width="100%"
           height="100%" />
      </g>
    </g>
    <g
       id="g2071">
      <use
         xlink:href="#e9uiLeN4k"
         id="use2065"
         style="opacity:1;fill:#000000;fill-opacity:1"
         x="0"
         y="0"
         width="100%"
         height="100%" />
      <g
         id="g2069">
        <use
           xlink:href="#e9uiLeN4k"
           id="use2067"
           style="opacity:1;fill-opacity:0;stroke:#000000;stroke-width:1;stroke-opacity:0"
           x="0"
           y="0"
           width="100%"
           height="100%" />
      </g>
    </g>
    <g
       id="g2079">
      <use
         xlink:href="#buzCGFCya"
         id="use2073"
         style="opacity:1;fill:#000000;fill-opacity:1"
         x="0"
         y="0"
         width="100%"
         height="100%" />
      <g
         id="g2077">
        <use
           xlink:href="#buzCGFCya"
           id="use2075"
           style="opacity:1;fill-opacity:0;stroke:#000000;stroke-width:1;stroke-opacity:0"
           x="0"
           y="0"
           width="100%"
           height="100%" />
      </g>
    </g>
    <g
       id="g2087">
      <use
         xlink:href="#cjXbdLC4"
         id="use2081"
         style="opacity:1;fill:#000000;fill-opacity:1"
         x="0"
         y="0"
         width="100%"
         height="100%" />
      <g
         id="g2085">
        <use
           xlink:href="#cjXbdLC4"
           id="use2083"
           style="opacity:1;fill-opacity:0;stroke:#000000;stroke-width:1;stroke-opacity:0"
           x="0"
           y="0"
           width="100%"
           height="100%" />
      </g>
    </g>
    <g
       id="g2095">
      <use
         xlink:href="#bcimxNKro"
         id="use2089"
         style="opacity:1;fill:#000000;fill-opacity:1"
         x="0"
         y="0"
         width="100%"
         height="100%" />
      <g
         id="g2093">
        <use
           xlink:href="#bcimxNKro"
           id="use2091"
           style="opacity:1;fill-opacity:0;stroke:#000000;stroke-width:1;stroke-opacity:0"
           x="0"
           y="0"
           width="100%"
           height="100%" />
      </g>
    </g>
    <g
       id="g2103">
      <use
         xlink:href="#gDhvnOhVy"
         id="use2097"
         style="opacity:1;fill:#000000;fill-opacity:1"
         x="0"
         y="0"
         width="100%"
         height="100%" />
      <g
         id="g2101">
        <use
           xlink:href="#gDhvnOhVy"
           id="use2099"
           style="opacity:1;fill-opacity:0;stroke:#000000;stroke-width:1;stroke-opacity:0"
           x="0"
           y="0"
           width="100%"
           height="100%" />
      </g>
    </g>
    <g
       id="g2111">
      <use
         xlink:href="#dNmt8y5nf"
         id="use2105"
         style="opacity:1;fill:#000000;fill-opacity:1"
         x="0"
         y="0"
         width="100%"
         height="100%" />
      <g
         id="g2109">
        <use
           xlink:href="#dNmt8y5nf"
           id="use2107"
           style="opacity:1;fill-opacity:0;stroke:#000000;stroke-width:1;stroke-opacity:0"
           x="0"
           y="0"
           width="100%"
           height="100%" />
      </g>
    </g>
    <g
       id="g2115">
      <use
         xlink:href="#edZonBa6S"
         id="use2113"
         style="opacity:1;fill:#000000;fill-opacity:1"
         x="0"
         y="0"
         width="100%"
         height="100%" />
    </g>
  </g>
  <rect
     style="opacity:0;fill:#ffffff;fill-opacity:1;stroke:none;stroke-width:1.0470432;stroke-miterlimit:4;stroke-dasharray:none;stroke-opacity:0"
     id="rect2668"
     width="95.477158"
     height="78.117676"
     x="13.333616"
     y="277.71893"
     clip-path="url(#clipPath2688)"
     transform="translate(0,-1.0470031)" />
  <rect
     style="opacity:0;fill:#ffffff;fill-opacity:1;stroke:none;stroke-width:1.0470432;stroke-miterlimit:4;stroke-dasharray:none;stroke-opacity:0"
     id="rect2672"
     width="95.987732"
     height="84.244545"
     x="7.7173138"
     y="277.20837"
     ry="0"
     clip-path="url(#clipPath2684)"
     transform="translate(0,-1.0470031)" />
</svg>
