<?xml version="1.0" encoding="UTF-8" standalone="no"?>
<!DOCTYPE svg PUBLIC "-//W3C//DTD SVG 1.1//EN" "http://www.w3.org/Graphics/SVG/1.1/DTD/svg11.dtd">
<svg version="1.1" xmlns="http://www.w3.org/2000/svg" xmlns:xlink="http://www.w3.org/1999/xlink" preserveAspectRatio="xMidYMid meet" viewBox="69.99825793727516 257.7734155034559 64.99999999999997 100" width="65" height="100"><defs><path d="M70 257.77L135 257.77L135 357.77L70 357.77L70 257.77Z" id="e5jRVXLwCy"></path><path d="M102.95 342.67L102.95 342.66L102.95 342.65L102.95 342.65L102.95 342.65L102.95 342.66L102.95 342.67Z" id="ezcs6D5WI"></path><path d="M104.27 340.94L104.27 340.95L104.27 340.96L104.27 340.96L104.27 340.96L104.27 340.95L104.27 340.94Z" id="h4y4orR2H"></path><path d="M82.5 266.66L122.5 266.66L122.5 305.43L82.5 305.43L82.5 266.66Z" id="gqQOUHKEd"></path><path d="M97.12 308.52L122.25 308.52L122.25 346.48L97.12 346.48L82.25 337.83L82.25 316.03L97.12 308.52Z" id="d6Y2SmTP6N"></path></defs><g><g><g><use xlink:href="#e5jRVXLwCy" opacity="1" fill="#ffffff" fill-opacity="1"></use><g><use xlink:href="#e5jRVXLwCy" opacity="1" fill-opacity="0" stroke="#000000" stroke-width="1" stroke-opacity="1"></use></g></g><g><use xlink:href="#ezcs6D5WI" opacity="1" fill="#484343" fill-opacity="1"></use><g><use xlink:href="#ezcs6D5WI" opacity="1" fill-opacity="0" stroke="#9dfe53" stroke-width="1" stroke-opacity="1"></use></g></g><g><use xlink:href="#h4y4orR2H" opacity="1" fill="#484343" fill-opacity="1"></use><g><use xlink:href="#h4y4orR2H" opacity="1" fill-opacity="0" stroke="#401e4f" stroke-width="1" stroke-opacity="1"></use></g></g><g><g><use xlink:href="#gqQOUHKEd" opacity="1" fill-opacity="0" stroke="#000000" stroke-width="1" stroke-opacity="1"></use></g></g><g><g><use xlink:href="#d6Y2SmTP6N" opacity="1" fill-opacity="0" stroke="#000000" stroke-width="1" stroke-opacity="1"></use></g></g></g></g></svg>